<?xml version="1.0" standalone="no"?><!DOCTYPE svg PUBLIC "-//W3C//DTD SVG 1.1//EN" "http://www.w3.org/Graphics/SVG/1.1/DTD/svg11.dtd"><svg width="100%" height="100%" viewBox="0 0 58 58" version="1.1" xmlns="http://www.w3.org/2000/svg" xmlns:xlink="http://www.w3.org/1999/xlink" xml:space="preserve" style="fill-rule:evenodd;clip-rule:evenodd;"><g><clipPath id="_clip1"><polygon points="0,57.385 0,0 57.383,0 57.383,57.385 0,57.385 "/></clipPath><g clip-path="url(#_clip1)"><g><path d="M56.952,0.432l0,56.519l-56.52,0l0,-56.519l56.52,0Z" style="fill:#fff;fill-rule:nonzero;"/><path d="M56.901,0.483l0,56.419l-56.419,0l0,-56.419l56.419,0Z" style="fill:none;stroke-width:0.23px;stroke:#583119;"/><path d="M0.482,33.057c3.221,0 6.343,0.631 9.281,1.874c2.839,1.2 5.389,2.918 7.58,5.11c2.191,2.191 3.91,4.741 5.112,7.581c1.243,2.938 1.872,6.06 1.872,9.279l1.986,0c0,-14.266 -11.565,-25.83 -25.831,-25.83l0,1.986Z" style="fill:#fff;fill-rule:nonzero;stroke-width:0.23px;stroke:#583119;"/><path d="M0.482,43.462c3.59,0 6.965,1.397 9.505,3.936c2.538,2.538 3.935,5.913 3.935,9.503l1.982,0c0,-8.516 -6.905,-15.422 -15.422,-15.422l0,1.983Z" style="fill:#fff;fill-rule:nonzero;stroke-width:0.23px;stroke:#583119;"/><path d="M0.482,51.737c2.848,0 5.165,2.318 5.165,5.164l1.967,0c0,-3.938 -3.194,-7.13 -7.132,-7.13l0,1.966Z" style="fill:#fff;fill-rule:nonzero;stroke-width:0.23px;stroke:#583119;"/><path d="M0.482,24.328c3.221,0 6.343,-0.63 9.281,-1.873c2.839,-1.201 5.389,-2.92 7.58,-5.111c2.191,-2.19 3.91,-4.74 5.112,-7.579c1.243,-2.94 1.872,-6.061 1.872,-9.283l1.986,0c0,14.267 -11.565,25.833 -25.831,25.833l0,-1.987Z" style="fill:#fff;fill-rule:nonzero;stroke-width:0.23px;stroke:#583119;"/><path d="M0.482,13.924c3.59,0 6.965,-1.399 9.505,-3.936c2.538,-2.54 3.935,-5.916 3.935,-9.506l1.982,0c0,8.519 -6.905,15.423 -15.422,15.423l0,-1.981Z" style="fill:#fff;fill-rule:nonzero;stroke-width:0.23px;stroke:#583119;"/><path d="M0.482,5.649c2.848,0 5.165,-2.318 5.165,-5.166l1.967,0c0,3.939 -3.194,7.131 -7.132,7.131l0,-1.965Z" style="fill:#fff;fill-rule:nonzero;stroke-width:0.23px;stroke:#583119;"/><path d="M56.901,33.057c-3.22,0 -6.343,0.631 -9.281,1.874c-2.839,1.2 -5.389,2.918 -7.58,5.11c-2.19,2.191 -3.91,4.741 -5.111,7.581c-1.243,2.938 -1.873,6.06 -1.873,9.279l-1.986,0c0,-14.266 11.565,-25.83 25.831,-25.83l0,1.986Z" style="fill:#fff;fill-rule:nonzero;stroke-width:0.23px;stroke:#583119;"/><path d="M56.901,43.462c-3.59,0 -6.965,1.397 -9.504,3.936c-2.539,2.538 -3.936,5.913 -3.936,9.503l-1.981,0c0,-8.516 6.904,-15.422 15.421,-15.422l0,1.983Z" style="fill:#fff;fill-rule:nonzero;stroke-width:0.23px;stroke:#583119;"/><path d="M56.901,51.737c-2.848,0 -5.164,2.318 -5.164,5.164l-1.967,0c0,-3.938 3.193,-7.13 7.131,-7.13l0,1.966Z" style="fill:#fff;fill-rule:nonzero;stroke-width:0.23px;stroke:#583119;"/><path d="M56.901,24.328c-3.22,0 -6.343,-0.63 -9.281,-1.873c-2.839,-1.201 -5.389,-2.92 -7.58,-5.111c-2.19,-2.19 -3.91,-4.74 -5.111,-7.579c-1.243,-2.94 -1.873,-6.061 -1.873,-9.283l-1.986,0c0,14.267 11.565,25.833 25.831,25.833l0,-1.987Z" style="fill:#fff;fill-rule:nonzero;stroke-width:0.23px;stroke:#583119;"/><path d="M56.901,13.924c-3.59,0 -6.965,-1.399 -9.504,-3.936c-2.539,-2.54 -3.936,-5.916 -3.936,-9.506l-1.981,0c0,8.519 6.904,15.423 15.421,15.423l0,-1.981Z" style="fill:#fff;fill-rule:nonzero;stroke-width:0.23px;stroke:#583119;"/><path d="M56.901,5.649c-2.848,0 -5.164,-2.318 -5.164,-5.166l-1.967,0c0,3.939 3.193,7.131 7.131,7.131l0,-1.965Z" style="fill:#fff;fill-rule:nonzero;stroke-width:0.23px;stroke:#583119;"/><path d="M38.778,10.874l-0.044,-3.389l-6.154,1.775l6.198,1.614Z" style="fill:#fff;fill-rule:nonzero;stroke-width:0.23px;stroke:#583119;"/><path d="M44.742,27.259l0.045,3.276l-1.659,-1.615l1.614,-1.661Z" style="fill:#fff;fill-rule:nonzero;stroke-width:0.23px;stroke:#583119;"/><path d="M27.327,34.258l1.794,-4.343c0.95,0.847 2.036,1.546 3.222,2.058l-5.016,2.285Z" style="fill:#fff;fill-rule:nonzero;stroke-width:0.23px;stroke:#583119;"/><path d="M32.366,22.116l1.377,-3.322l3.048,5.89c-1.728,-0.395 -3.259,-1.309 -4.425,-2.568Z" style="fill:#fff;fill-rule:nonzero;stroke-width:0.23px;stroke:#583119;"/><path d="M39.171,32.91l-0.002,0l-0.051,-3.887l3.824,-0.051l-3.771,3.938Z" style="fill:#fff;fill-rule:nonzero;stroke-width:0.23px;stroke:#583119;"/><path d="M44.713,27.137c0,0 -1.872,-1.297 -5.539,-2.07l3.876,3.783l1.663,-1.713Z" style="fill:#fff;fill-rule:nonzero;stroke-width:0.23px;stroke:#583119;"/><path d="M30.465,26.463l-1.368,3.283c-1.27,-1.132 -2.297,-2.529 -2.993,-4.11l4.361,0.822l0,0.005Z" style="fill:#fff;fill-rule:nonzero;stroke-width:0.23px;stroke:#583119;"/><path d="M32.356,22.192c1.18,1.252 2.729,2.161 4.479,2.553l-6.226,1.6l1.747,-4.153Z" style="fill:#fff;fill-rule:nonzero;stroke-width:0.23px;stroke:#583119;"/><path d="M30.574,26.493l0.007,-0.005c1.855,1.593 4.29,2.545 6.946,2.509l-0.061,0.002l1.582,-0.02l-6.494,2.907l-1.98,-5.393Z" style="fill:#fff;fill-rule:nonzero;stroke-width:0.23px;stroke:#583119;"/><path d="M26.964,18.609c-0.051,-4.013 2.148,-7.523 5.411,-9.298l0.381,0.103c-1.788,1.654 -2.895,4.047 -2.862,6.696c0.016,1.174 0.254,2.295 0.674,3.314l-0.092,6.881l0.005,-0.004l0,0.004c-2.121,-1.869 -3.476,-4.617 -3.517,-7.696" style="fill:#fff;fill-rule:nonzero;"/><path d="M26.964,18.609c-0.051,-4.013 2.148,-7.523 5.411,-9.298l0.381,0.103c-1.788,1.654 -2.895,4.047 -2.862,6.696c0.016,1.174 0.254,2.295 0.674,3.314l-0.092,6.881l0.005,-0.004l0,0.004c-2.121,-1.869 -3.476,-4.617 -3.517,-7.696Z" style="fill:none;stroke-width:0.23px;stroke:#583119;"/><path d="M36.936,24.807c0.651,0.155 1.33,0.231 2.031,0.22l0.05,3.896l-2.081,-4.116Z" style="fill:#fff;fill-rule:nonzero;stroke-width:0.23px;stroke:#583119;"/><path d="M44.761,30.658c0,0 -1.838,1.344 -5.483,2.213l3.774,-3.879l1.709,1.666Z" style="fill:#fff;fill-rule:nonzero;stroke-width:0.23px;stroke:#583119;"/><path d="M39.066,25.032l0.05,3.89l3.825,-0.052l-3.875,-3.838Z" style="fill:#fff;fill-rule:nonzero;stroke-width:0.23px;stroke:#583119;"/><path d="M25.034,20.732c-0.068,-5.099 2.968,-9.511 7.341,-11.428l0.036,0.01c-3.3,1.778 -5.525,5.295 -5.473,9.315c0.04,3.049 1.378,5.772 3.478,7.645l-4.361,-0.778c-0.636,-1.459 -0.998,-3.068 -1.021,-4.764" style="fill:#fff;fill-rule:nonzero;"/><path d="M25.034,20.732c-0.068,-5.099 2.968,-9.511 7.341,-11.428l0.036,0.01c-3.3,1.778 -5.525,5.295 -5.473,9.315c0.04,3.049 1.378,5.772 3.478,7.645l-4.361,-0.778c-0.636,-1.459 -0.998,-3.068 -1.021,-4.764Z" style="fill:none;stroke-width:0.23px;stroke:#583119;"/><path d="M29.165,29.85l1.359,-3.284l1.926,5.332l-0.045,0.022c-1.192,-0.515 -2.285,-1.218 -3.24,-2.07Z" style="fill:#fff;fill-rule:nonzero;stroke-width:0.23px;stroke:#583119;"/><path d="M30.566,26.317l0.089,-6.794c0.387,0.955 0.931,1.825 1.596,2.573l-1.679,4.217l-0.006,0.004Z" style="fill:#fff;fill-rule:nonzero;stroke-width:0.23px;stroke:#583119;"/><path d="M32.578,31.928l6.439,-2.905l0.001,0l0.053,3.888l-1.57,0.022c-1.739,0.023 -3.399,-0.319 -4.903,-0.953l-0.02,-0.052Z" style="fill:#fff;fill-rule:nonzero;stroke-width:0.23px;stroke:#583119;"/><path d="M37.473,28.942c-2.64,0.036 -5.058,-0.914 -6.902,-2.506l0,-0.004l6.265,-1.618l2.147,4.109l-1.571,0.021l0.061,-0.002Z" style="fill:#fff;fill-rule:nonzero;stroke-width:0.23px;stroke:#583119;"/><path d="M17.681,42.587l8.118,5.84l1.916,-5.84l-10.034,0Z" style="fill:#fff;fill-rule:nonzero;stroke-width:0.23px;stroke:#583119;"/><path d="M20.795,52.112l4.966,-3.606l-8.034,-5.838l3.068,9.444Z" style="fill:#fff;fill-rule:nonzero;stroke-width:0.23px;stroke:#583119;"/><path d="M17.631,42.587l-3.07,9.556l6.14,0l-3.07,-9.556Z" style="fill:#fff;fill-rule:nonzero;stroke-width:0.23px;stroke:#583119;"/><path d="M17.681,42.487l10.034,0l-1.916,-5.84l-8.118,5.84Z" style="fill:#fff;fill-rule:nonzero;stroke-width:0.23px;stroke:#583119;"/><path d="M17.681,42.487l8.081,-5.888l-4.994,-3.639l-3.087,9.527Z" style="fill:#fff;fill-rule:nonzero;stroke-width:0.23px;stroke:#583119;"/><path d="M9.501,48.506l4.966,3.605l3.069,-9.442l-8.035,5.837Z" style="fill:#fff;fill-rule:nonzero;stroke-width:0.23px;stroke:#583119;"/><path d="M7.547,42.587l1.916,5.84l8.117,-5.84l-10.033,0Z" style="fill:#fff;fill-rule:nonzero;stroke-width:0.23px;stroke:#583119;"/><path d="M17.631,42.374l3.069,-9.445l-6.138,0l3.069,9.445Z" style="fill:#fff;fill-rule:nonzero;stroke-width:0.23px;stroke:#583119;"/><path d="M7.547,42.487l10.033,0l-8.117,-5.84l-1.916,5.84Z" style="fill:#fff;fill-rule:nonzero;stroke-width:0.23px;stroke:#583119;"/></g></g></g></svg>