<?xml version="1.0" standalone="no"?><!DOCTYPE svg PUBLIC "-//W3C//DTD SVG 1.1//EN" "http://www.w3.org/Graphics/SVG/1.1/DTD/svg11.dtd"><svg width="100%" height="100%" viewBox="0 0 60 60" version="1.1" xmlns="http://www.w3.org/2000/svg" xmlns:xlink="http://www.w3.org/1999/xlink" xml:space="preserve" style="fill-rule:evenodd;clip-rule:evenodd;stroke-miterlimit:1.41421;"><g><rect x="0" y="0" width="60" height="60" style="fill:#fff;fill-rule:nonzero;"/><rect x="0.053" y="0.054" width="59.893" height="59.894" style="fill:none;stroke-width:0.24px;stroke:#583119;"/><path d="M0.053,34.634c3.419,0 6.734,0.67 9.853,1.99c3.013,1.274 5.72,3.098 8.046,5.425c2.326,2.325 4.151,5.033 5.427,8.047c1.32,3.119 1.987,6.434 1.987,9.851l2.109,0c0,-15.145 -12.278,-27.421 -27.422,-27.421l0,2.108Z" style="fill:#fff;fill-rule:nonzero;stroke-width:0.24px;stroke:#583119;"/><path d="M0.053,45.68c3.811,0 7.394,1.483 10.09,4.179c2.695,2.694 4.178,6.277 4.178,10.088l2.104,0c0,-9.041 -7.331,-16.372 -16.372,-16.372l0,2.105Z" style="fill:#fff;fill-rule:nonzero;stroke-width:0.24px;stroke:#583119;"/><path d="M0.053,54.465c3.023,0 5.483,2.461 5.483,5.482l2.088,0c0,-4.181 -3.39,-7.569 -7.571,-7.569l0,2.087Z" style="fill:#fff;fill-rule:nonzero;stroke-width:0.24px;stroke:#583119;"/><path d="M0.053,25.368c3.419,0 6.734,-0.669 9.853,-1.989c3.013,-1.275 5.72,-3.099 8.046,-5.425c2.326,-2.325 4.151,-5.032 5.427,-8.046c1.32,-3.121 1.987,-6.434 1.987,-9.855l2.109,0c0,15.146 -12.278,27.424 -27.422,27.424l0,-2.109l0,0Z" style="fill:#fff;fill-rule:nonzero;stroke-width:0.24px;stroke:#583119;"/><path d="M0.053,14.323c3.811,0 7.394,-1.485 10.09,-4.178c2.695,-2.697 4.178,-6.281 4.178,-10.092l2.104,0c0,9.044 -7.331,16.373 -16.372,16.373l0,-2.103l0,0Z" style="fill:#fff;fill-rule:nonzero;stroke-width:0.24px;stroke:#583119;"/><path d="M0.053,5.538c3.023,0 5.483,-2.46 5.483,-5.484l2.088,0c0,4.182 -3.39,7.57 -7.571,7.57l0,-2.086l0,0Z" style="fill:#fff;fill-rule:nonzero;stroke-width:0.24px;stroke:#583119;"/><path d="M59.946,34.634c-3.418,0 -6.734,0.67 -9.853,1.99c-3.013,1.274 -5.72,3.098 -8.046,5.425c-2.325,2.325 -4.151,5.033 -5.426,8.047c-1.32,3.119 -1.988,6.434 -1.988,9.851l-2.109,0c0,-15.145 12.277,-27.421 27.422,-27.421l0,2.108Z" style="fill:#fff;fill-rule:nonzero;stroke-width:0.24px;stroke:#583119;"/><path d="M59.946,45.68c-3.811,0 -7.394,1.483 -10.089,4.179c-2.696,2.694 -4.179,6.277 -4.179,10.088l-2.103,0c0,-9.041 7.329,-16.372 16.371,-16.372l0,2.105Z" style="fill:#fff;fill-rule:nonzero;stroke-width:0.24px;stroke:#583119;"/><path d="M59.946,54.465c-3.023,0 -5.482,2.461 -5.482,5.482l-2.088,0c0,-4.181 3.389,-7.569 7.57,-7.569l0,2.087Z" style="fill:#fff;fill-rule:nonzero;stroke-width:0.24px;stroke:#583119;"/><path d="M59.946,25.368c-3.418,0 -6.734,-0.669 -9.853,-1.989c-3.013,-1.275 -5.72,-3.099 -8.046,-5.425c-2.325,-2.325 -4.151,-5.032 -5.426,-8.046c-1.32,-3.121 -1.988,-6.434 -1.988,-9.855l-2.109,0c0,15.146 12.277,27.424 27.422,27.424l0,-2.109l0,0Z" style="fill:#fff;fill-rule:nonzero;stroke-width:0.24px;stroke:#583119;"/><path d="M59.946,14.323c-3.811,0 -7.394,-1.485 -10.089,-4.178c-2.696,-2.697 -4.179,-6.281 -4.179,-10.092l-2.103,0c0,9.044 7.329,16.373 16.371,16.373l0,-2.103Z" style="fill:#fff;fill-rule:nonzero;stroke-width:0.24px;stroke:#583119;"/><path d="M59.946,5.538c-3.023,0 -5.482,-2.46 -5.482,-5.484l-2.088,0c0,4.182 3.389,7.57 7.57,7.57l0,-2.086Z" style="fill:#fff;fill-rule:nonzero;stroke-width:0.24px;stroke:#583119;"/><path d="M40.707,11.085l-0.047,-3.598l-6.533,1.885l6.58,1.713Z" style="fill:#fff;fill-rule:nonzero;stroke-width:0.24px;stroke:#583119;"/><path d="M47.038,28.479l0.048,3.478l-1.761,-1.714l1.713,-1.764Z" style="fill:#fff;fill-rule:nonzero;stroke-width:0.24px;stroke:#583119;"/><path d="M28.551,35.909l1.904,-4.61c1.009,0.899 2.162,1.641 3.421,2.185l-5.325,2.425l0,0Z" style="fill:#fff;fill-rule:nonzero;stroke-width:0.24px;stroke:#583119;"/><path d="M33.9,23.02l1.462,-3.527l3.236,6.253c-1.835,-0.42 -3.46,-1.39 -4.698,-2.726l0,0Z" style="fill:#fff;fill-rule:nonzero;stroke-width:0.24px;stroke:#583119;"/><path d="M41.124,34.478l-0.002,0l-0.054,-4.126l4.059,-0.054l-4.003,4.18l0,0Z" style="fill:#fff;fill-rule:nonzero;stroke-width:0.24px;stroke:#583119;"/><path d="M47.007,28.35c0,0 -1.987,-1.377 -5.88,-2.198l4.115,4.016l1.765,-1.818l0,0Z" style="fill:#fff;fill-rule:nonzero;stroke-width:0.24px;stroke:#583119;"/><path d="M31.882,27.634l-1.452,3.485c-1.348,-1.201 -2.438,-2.684 -3.177,-4.363l4.629,0.873l0,0.005Z" style="fill:#fff;fill-rule:nonzero;stroke-width:0.24px;stroke:#583119;"/><path d="M33.89,23.1c1.252,1.329 2.897,2.294 4.754,2.71l-6.609,1.699l1.855,-4.409l0,0Z" style="fill:#fff;fill-rule:nonzero;stroke-width:0.24px;stroke:#583119;"/><path d="M31.998,27.666l0.007,-0.005c1.97,1.691 4.554,2.702 7.374,2.663l-0.065,0.002l1.68,-0.021l-6.894,3.086l-2.102,-5.725Z" style="fill:#fff;fill-rule:nonzero;stroke-width:0.24px;stroke:#583119;"/><path d="M28.166,19.297c-0.055,-4.261 2.28,-7.987 5.744,-9.871l0.404,0.109c-1.898,1.756 -3.073,4.296 -3.038,7.109c0.017,1.246 0.27,2.436 0.716,3.518l-0.098,7.305l0.005,-0.005l0,0.005c-2.251,-1.985 -3.69,-4.902 -3.733,-8.17" style="fill:#fff;fill-rule:nonzero;"/><path d="M28.166,19.297c-0.055,-4.261 2.28,-7.987 5.744,-9.871l0.404,0.109c-1.898,1.756 -3.073,4.296 -3.038,7.109c0.017,1.246 0.27,2.436 0.716,3.518l-0.098,7.305l0.005,-0.005l0,0.005c-2.251,-1.985 -3.69,-4.902 -3.733,-8.17Z" style="fill:none;stroke-width:0.24px;stroke:#583119;"/><path d="M38.752,25.876c0.691,0.165 1.411,0.245 2.156,0.234l0.053,4.136l-2.209,-4.37l0,0Z" style="fill:#fff;fill-rule:nonzero;stroke-width:0.24px;stroke:#583119;"/><path d="M47.058,32.088c0,0 -1.951,1.426 -5.82,2.349l4.006,-4.118l1.814,1.769Z" style="fill:#fff;fill-rule:nonzero;stroke-width:0.24px;stroke:#583119;"/><path d="M41.013,26.115l0.053,4.13l4.06,-0.056l-4.113,-4.074Z" style="fill:#fff;fill-rule:nonzero;stroke-width:0.24px;stroke:#583119;"/><path d="M26.117,21.55c-0.072,-5.413 3.151,-10.097 7.793,-12.132l0.038,0.011c-3.503,1.888 -5.865,5.621 -5.81,9.889c0.042,3.237 1.463,6.127 3.692,8.116l-4.629,-0.826c-0.676,-1.549 -1.06,-3.257 -1.084,-5.058" style="fill:#fff;fill-rule:nonzero;"/><path d="M26.117,21.55c-0.072,-5.413 3.151,-10.097 7.793,-12.132l0.038,0.011c-3.503,1.888 -5.865,5.621 -5.81,9.889c0.042,3.237 1.463,6.127 3.692,8.116l-4.629,-0.826c-0.676,-1.549 -1.06,-3.257 -1.084,-5.058l0,0Z" style="fill:none;stroke-width:0.24px;stroke:#583119;"/><path d="M30.502,31.23l1.443,-3.486l2.044,5.66l-0.047,0.023c-1.266,-0.546 -2.426,-1.293 -3.44,-2.197Z" style="fill:#fff;fill-rule:nonzero;stroke-width:0.24px;stroke:#583119;"/><path d="M31.989,27.479l0.095,-7.212c0.411,1.014 0.988,1.937 1.694,2.731l-1.782,4.477l-0.007,0.004Z" style="fill:#fff;fill-rule:nonzero;stroke-width:0.24px;stroke:#583119;"/><path d="M34.125,33.436l6.836,-3.084l0.001,0l0.056,4.127l-1.667,0.024c-1.846,0.024 -3.608,-0.339 -5.205,-1.012l-0.021,-0.055l0,0Z" style="fill:#fff;fill-rule:nonzero;stroke-width:0.24px;stroke:#583119;"/><path d="M39.322,30.266c-2.803,0.038 -5.37,-0.97 -7.327,-2.66l0,-0.005l6.65,-1.717l2.28,4.362l-1.668,0.022l0.065,-0.002l0,0Z" style="fill:#fff;fill-rule:nonzero;stroke-width:0.24px;stroke:#583119;"/><path d="M18.311,44.751l8.618,6.2l2.034,-6.2l-10.652,0l0,0Z" style="fill:#fff;fill-rule:nonzero;stroke-width:0.24px;stroke:#583119;"/><path d="M21.617,54.863l5.272,-3.828l-8.529,-6.198l3.257,10.026Z" style="fill:#fff;fill-rule:nonzero;stroke-width:0.24px;stroke:#583119;"/><path d="M18.258,44.751l-3.259,10.145l6.518,0l-3.259,-10.145Z" style="fill:#fff;fill-rule:nonzero;stroke-width:0.24px;stroke:#583119;"/><path d="M18.311,44.645l10.652,0l-2.034,-6.2l-8.618,6.2l0,0Z" style="fill:#fff;fill-rule:nonzero;stroke-width:0.24px;stroke:#583119;"/><path d="M18.311,44.645l8.579,-6.25l-5.302,-3.864l-3.277,10.114Z" style="fill:#fff;fill-rule:nonzero;stroke-width:0.24px;stroke:#583119;"/><path d="M9.627,51.035l5.272,3.827l3.258,-10.024l-8.53,6.197l0,0Z" style="fill:#fff;fill-rule:nonzero;stroke-width:0.24px;stroke:#583119;"/><path d="M7.553,44.751l2.034,6.2l8.617,-6.2l-10.651,0l0,0Z" style="fill:#fff;fill-rule:nonzero;stroke-width:0.24px;stroke:#583119;"/><path d="M18.258,44.525l3.258,-10.027l-6.516,0l3.258,10.027Z" style="fill:#fff;fill-rule:nonzero;stroke-width:0.24px;stroke:#583119;"/><path d="M7.553,44.645l10.651,0l-8.617,-6.2l-2.034,6.2l0,0Z" style="fill:#fff;fill-rule:nonzero;stroke-width:0.24px;stroke:#583119;"/></g></svg>