<?xml version="1.0" standalone="no"?><!DOCTYPE svg PUBLIC "-//W3C//DTD SVG 1.1//EN" "http://www.w3.org/Graphics/SVG/1.1/DTD/svg11.dtd"><svg width="100%" height="100%" viewBox="0 0 60 60" version="1.1" xmlns="http://www.w3.org/2000/svg" xmlns:xlink="http://www.w3.org/1999/xlink" xml:space="preserve" style="fill-rule:evenodd;clip-rule:evenodd;stroke-miterlimit:1.41421;"><g><rect x="0" y="0" width="60" height="60" style="fill:#fff;"/><rect x="0.053" y="0.055" width="59.894" height="59.894" style="fill:none;stroke-width:0.24px;stroke:#583119;"/><path d="M34.632,59.948c0,-3.417 0.669,-6.733 1.988,-9.853c1.275,-3.014 3.1,-5.721 5.426,-8.047c2.325,-2.325 5.033,-4.15 8.047,-5.425c3.118,-1.319 6.433,-1.988 9.854,-1.988l0,-2.109c-15.147,0 -27.424,12.277 -27.424,27.422l2.109,0Z" style="fill:#fff;fill-rule:nonzero;stroke-width:0.24px;stroke:#583119;"/><path d="M45.677,59.948c0,-3.811 1.485,-7.393 4.178,-10.088c2.697,-2.697 6.281,-4.18 10.092,-4.18l0,-2.103c-9.044,0 -16.373,7.329 -16.373,16.371l2.103,0Z" style="fill:#fff;fill-rule:nonzero;stroke-width:0.24px;stroke:#583119;"/><path d="M54.462,59.948c0,-3.023 2.46,-5.482 5.484,-5.482l0,-2.088c-4.182,0 -7.572,3.389 -7.572,7.57l2.088,0Z" style="fill:#fff;fill-rule:nonzero;stroke-width:0.24px;stroke:#583119;"/><path d="M25.365,59.948c0,-3.417 -0.669,-6.733 -1.986,-9.853c-1.277,-3.014 -3.101,-5.721 -5.428,-8.047c-2.325,-2.325 -5.033,-4.15 -8.047,-5.425c-3.118,-1.319 -6.434,-1.988 -9.851,-1.988l0,-2.109c15.144,0 27.42,12.277 27.42,27.422l-2.108,0l0,0Z" style="fill:#fff;fill-rule:nonzero;stroke-width:0.24px;stroke:#583119;"/><path d="M14.319,59.948c0,-3.811 -1.483,-7.393 -4.177,-10.088c-2.696,-2.697 -6.278,-4.18 -10.089,-4.18l0,-2.103c9.04,0 16.371,7.329 16.371,16.371l-2.105,0l0,0Z" style="fill:#fff;fill-rule:nonzero;stroke-width:0.24px;stroke:#583119;"/><path d="M5.535,59.948c0,-3.023 -2.461,-5.482 -5.483,-5.482l0,-2.088c4.181,0 7.57,3.389 7.57,7.57l-2.087,0Z" style="fill:#fff;fill-rule:nonzero;stroke-width:0.24px;stroke:#583119;"/><path d="M34.632,0.054c0,3.417 0.669,6.733 1.988,9.853c1.275,3.014 3.1,5.721 5.426,8.047c2.325,2.326 5.033,4.151 8.047,5.425c3.118,1.319 6.433,1.989 9.854,1.989l0,2.109c-15.147,0 -27.424,-12.278 -27.424,-27.423l2.109,0Z" style="fill:#fff;fill-rule:nonzero;stroke-width:0.24px;stroke:#583119;"/><path d="M45.677,0.054c0,3.811 1.485,7.394 4.178,10.089c2.697,2.696 6.281,4.179 10.092,4.179l0,2.104c-9.044,0 -16.373,-7.33 -16.373,-16.372l2.103,0Z" style="fill:#fff;fill-rule:nonzero;stroke-width:0.24px;stroke:#583119;"/><path d="M54.462,0.054c0,3.024 2.46,5.483 5.484,5.483l0,2.089c-4.182,0 -7.572,-3.391 -7.572,-7.572l2.088,0Z" style="fill:#fff;fill-rule:nonzero;stroke-width:0.24px;stroke:#583119;"/><path d="M25.365,0.054c0,3.417 -0.669,6.733 -1.986,9.853c-1.277,3.014 -3.101,5.721 -5.428,8.047c-2.325,2.326 -5.033,4.151 -8.047,5.425c-3.118,1.319 -6.434,1.989 -9.851,1.989l0,2.109c15.144,0 27.42,-12.278 27.42,-27.423l-2.108,0l0,0Z" style="fill:#fff;fill-rule:nonzero;stroke-width:0.24px;stroke:#583119;"/><path d="M14.319,0.054c0,3.811 -1.483,7.394 -4.177,10.089c-2.696,2.696 -6.278,4.179 -10.089,4.179l0,2.104c9.04,0 16.371,-7.33 16.371,-16.372l-2.105,0l0,0Z" style="fill:#fff;fill-rule:nonzero;stroke-width:0.24px;stroke:#583119;"/><path d="M5.535,0.054c0,3.024 -2.461,5.483 -5.483,5.483l0,2.089c4.181,0 7.57,-3.391 7.57,-7.572l-2.087,0l0,0Z" style="fill:#fff;fill-rule:nonzero;stroke-width:0.24px;stroke:#583119;"/><path d="M9.127,27.437l0.046,3.595l6.532,-1.883l-6.578,-1.712l0,0Z" style="fill:#fff;fill-rule:nonzero;stroke-width:0.24px;stroke:#583119;"/><path d="M2.795,10.041l-0.048,-3.477l1.761,1.715l-1.713,1.762l0,0Z" style="fill:#fff;fill-rule:nonzero;stroke-width:0.24px;stroke:#583119;"/><path d="M21.281,2.614l-1.902,4.609c-1.011,-0.9 -2.164,-1.642 -3.421,-2.185l5.323,-2.424Z" style="fill:#fff;fill-rule:nonzero;stroke-width:0.24px;stroke:#583119;"/><path d="M15.932,15.504l-1.46,3.526l-3.236,-6.254c1.835,0.42 3.459,1.389 4.696,2.728Z" style="fill:#fff;fill-rule:nonzero;stroke-width:0.24px;stroke:#583119;"/><path d="M8.708,4.044l0.002,0l0.055,4.126l-4.06,0.053l4.003,-4.179l0,0Z" style="fill:#fff;fill-rule:nonzero;stroke-width:0.24px;stroke:#583119;"/><path d="M2.826,10.171c0,0 1.986,1.377 5.879,2.198l-4.116,-4.015l-1.763,1.817l0,0Z" style="fill:#fff;fill-rule:nonzero;stroke-width:0.24px;stroke:#583119;"/><path d="M17.951,10.888l1.453,-3.485c1.347,1.202 2.438,2.683 3.177,4.361l-4.63,-0.871l0,-0.005Z" style="fill:#fff;fill-rule:nonzero;stroke-width:0.24px;stroke:#583119;"/><path d="M15.942,15.423c-1.251,-1.332 -2.895,-2.294 -4.753,-2.713l6.61,-1.696l-1.857,4.409l0,0Z" style="fill:#fff;fill-rule:nonzero;stroke-width:0.24px;stroke:#583119;"/><path d="M17.833,10.86l-0.008,0.005c-1.968,-1.693 -4.552,-2.703 -7.372,-2.665l0.065,-0.002l-1.679,0.022l6.893,-3.089l2.101,5.729Z" style="fill:#fff;fill-rule:nonzero;stroke-width:0.24px;stroke:#583119;"/><path d="M21.667,19.225c0.056,4.259 -2.279,7.987 -5.744,9.868l-0.404,-0.107c1.899,-1.756 3.074,-4.296 3.039,-7.107c-0.016,-1.248 -0.272,-2.437 -0.718,-3.518l0.099,-7.305l-0.006,0.003l0,-0.006c2.253,1.988 3.69,4.904 3.734,8.172" style="fill:#fff;fill-rule:nonzero;"/><path d="M21.667,19.225c0.056,4.259 -2.279,7.987 -5.744,9.868l-0.404,-0.107c1.899,-1.756 3.074,-4.296 3.039,-7.107c-0.016,-1.248 -0.272,-2.437 -0.718,-3.518l0.099,-7.305l-0.006,0.003l0,-0.006c2.253,1.988 3.69,4.904 3.734,8.172l0,0Z" style="fill:none;stroke-width:0.24px;stroke:#583119;"/><path d="M11.081,12.645c-0.691,-0.164 -1.413,-0.244 -2.156,-0.235l-0.054,-4.134l0.001,0l2.209,4.369Z" style="fill:#fff;fill-rule:nonzero;stroke-width:0.24px;stroke:#583119;"/><path d="M2.774,6.433c0,0 1.951,-1.425 5.82,-2.348l-4.006,4.118l-1.814,-1.77l0,0Z" style="fill:#fff;fill-rule:nonzero;stroke-width:0.24px;stroke:#583119;"/><path d="M8.821,12.405l-0.053,-4.128l-4.061,0.053l4.114,4.075Z" style="fill:#fff;fill-rule:nonzero;stroke-width:0.24px;stroke:#583119;"/><path d="M23.716,16.971c0.074,5.412 -3.151,10.098 -7.793,12.13l-0.038,-0.01c3.504,-1.885 5.865,-5.62 5.811,-9.888c-0.043,-3.237 -1.463,-6.126 -3.693,-8.114l4.63,0.825c0.676,1.547 1.058,3.259 1.083,5.057" style="fill:#fff;fill-rule:nonzero;"/><path d="M23.716,16.971c0.074,5.412 -3.151,10.098 -7.793,12.13l-0.038,-0.01c3.504,-1.885 5.865,-5.62 5.811,-9.888c-0.043,-3.237 -1.463,-6.126 -3.693,-8.114l4.63,0.825c0.676,1.547 1.058,3.259 1.083,5.057Z" style="fill:none;stroke-width:0.24px;stroke:#583119;"/><path d="M19.332,7.293l-1.445,3.486l-2.044,-5.66l0.048,-0.023c1.266,0.545 2.426,1.291 3.441,2.197l0,0Z" style="fill:#fff;fill-rule:nonzero;stroke-width:0.24px;stroke:#583119;"/><path d="M17.842,11.051l-0.095,7.204c-0.408,-1.012 -0.986,-1.935 -1.694,-2.729l1.784,-4.47l0.005,-0.005Z" style="fill:#fff;fill-rule:nonzero;stroke-width:0.24px;stroke:#583119;"/><path d="M15.708,5.086l-6.836,3.084l-0.003,0l-0.054,-4.126l1.666,-0.025c1.846,-0.024 3.609,0.338 5.205,1.012l0.022,0.055Z" style="fill:#fff;fill-rule:nonzero;stroke-width:0.24px;stroke:#583119;"/><path d="M10.51,8.255c2.805,-0.036 5.371,0.97 7.328,2.659l0,0.006l-6.651,1.716l-2.28,-4.361l1.669,-0.021l-0.066,0.001l0,0Z" style="fill:#fff;fill-rule:nonzero;stroke-width:0.24px;stroke:#583119;"/><path d="M20.94,45.095l-2.663,4.715l-0.889,-3.193c0.986,-0.527 2.167,-1.057 3.552,-1.522l0,0Z" style="fill:#fff;fill-rule:nonzero;stroke-width:0.24px;stroke:#583119;"/><path d="M19.14,53.247l-0.893,-3.232l-3.208,0.9l4.101,2.332Z" style="fill:#fff;fill-rule:nonzero;stroke-width:0.24px;stroke:#583119;"/><path d="M23.191,52.691l2.706,-4.81l-7.501,2.093l4.795,2.717Z" style="fill:#fff;fill-rule:nonzero;stroke-width:0.24px;stroke:#583119;"/><path d="M29.919,50.068l-3.828,-2.164l0.994,3.569c0.987,-0.412 1.938,-0.895 2.834,-1.405l0,0Z" style="fill:#fff;fill-rule:nonzero;stroke-width:0.24px;stroke:#583119;"/><path d="M37.038,44.688l-10.921,3.021l2.206,-3.883c4.68,-0.112 8.715,0.862 8.715,0.862l0,0Z" style="fill:#fff;fill-rule:nonzero;stroke-width:0.24px;stroke:#583119;"/><path d="M22.536,44.602c0.781,-0.216 1.583,-0.379 2.39,-0.499l0.993,3.581l-4.732,-2.668c0.431,-0.145 0.879,-0.283 1.349,-0.414Z" style="fill:#fff;fill-rule:nonzero;stroke-width:0.24px;stroke:#583119;"/><path d="M13.097,49.793c0,0 1.24,-1.531 4.092,-3.061l-2.299,4.076l-1.793,-1.015l0,0Z" style="fill:#fff;fill-rule:nonzero;stroke-width:0.24px;stroke:#583119;"/><path d="M23.062,52.716l-4.717,-2.658l0.89,3.186c1.116,-0.056 2.397,-0.211 3.827,-0.528Z" style="fill:#fff;fill-rule:nonzero;stroke-width:0.24px;stroke:#583119;"/><path d="M37.07,44.772l-10.925,3.031l3.907,2.204c4.07,-2.318 7.018,-5.235 7.018,-5.235Z" style="fill:#fff;fill-rule:nonzero;stroke-width:0.24px;stroke:#583119;"/><path d="M24.683,52.326c0.782,-0.218 1.551,-0.492 2.303,-0.806l-0.998,-3.587l-2.672,4.733c0.443,-0.096 0.898,-0.209 1.367,-0.34Z" style="fill:#fff;fill-rule:nonzero;stroke-width:0.24px;stroke:#583119;"/><path d="M13.918,52.745c0,0 1.85,0.669 5.087,0.503l-4.076,-2.294l-1.011,1.791l0,0Z" style="fill:#fff;fill-rule:nonzero;stroke-width:0.24px;stroke:#583119;"/><path d="M17.308,46.65l0.887,3.242l-3.185,0.902l2.298,-4.144Z" style="fill:#fff;fill-rule:nonzero;stroke-width:0.24px;stroke:#583119;"/><path d="M21.076,45.054l4.792,2.714l-7.499,2.095l2.707,-4.809Z" style="fill:#fff;fill-rule:nonzero;stroke-width:0.24px;stroke:#583119;"/><path d="M28.185,43.827l-2.163,3.829l-0.988,-3.57c1.055,-0.156 2.12,-0.232 3.151,-0.259Z" style="fill:#fff;fill-rule:nonzero;stroke-width:0.24px;stroke:#583119;"/><path d="M13.102,49.923l0.755,2.708l0.975,-1.73l-1.73,-0.978Z" style="fill:#fff;fill-rule:nonzero;stroke-width:0.24px;stroke:#583119;"/><path d="M42.247,41.759l0.784,2.822l-5.58,0.031l4.796,-2.853l0,0Z" style="fill:#fff;fill-rule:nonzero;stroke-width:0.24px;stroke:#583119;"/><path d="M23.353,52.745c-0.016,0.031 -0.035,0.06 -0.05,0.089l4.79,2.675l-1.094,-3.893c-0.761,0.315 -1.541,0.589 -2.331,0.806c-0.451,0.123 -0.888,0.232 -1.315,0.323" style="fill:#fff;fill-rule:nonzero;"/><path d="M23.353,52.745c-0.016,0.031 -0.035,0.06 -0.05,0.089l4.79,2.675l-1.094,-3.893c-0.761,0.315 -1.541,0.589 -2.331,0.806c-0.451,0.123 -0.888,0.232 -1.315,0.323l0,0Z" style="fill:none;stroke-width:0.24px;stroke:#583119;"/><path d="M21.198,44.917c-0.031,-0.016 -0.057,-0.031 -0.09,-0.049l2.696,-4.757l1.093,3.912c-0.812,0.12 -1.62,0.284 -2.408,0.501c-0.449,0.124 -0.877,0.255 -1.291,0.393" style="fill:#fff;fill-rule:nonzero;"/><path d="M21.198,44.917c-0.031,-0.016 -0.057,-0.031 -0.09,-0.049l2.696,-4.757l1.093,3.912c-0.812,0.12 -1.62,0.284 -2.408,0.501c-0.449,0.124 -0.877,0.255 -1.291,0.393l0,0Z" style="fill:none;stroke-width:0.24px;stroke:#583119;"/><path d="M31.113,13.657c-0.09,2.281 0.696,4.589 2.354,6.382c-2.439,0.092 -4.626,1.17 -6.177,2.846c1.549,1.675 3.738,2.752 6.177,2.845c-1.658,1.792 -2.444,4.1 -2.354,6.383c2.281,0.088 4.589,-0.698 6.382,-2.358c0.092,2.44 1.169,4.629 2.846,6.179c1.675,-1.55 2.752,-3.739 2.844,-6.179c1.792,1.66 4.101,2.446 6.382,2.358c0.091,-2.283 -0.697,-4.591 -2.356,-6.383c2.44,-0.093 4.629,-1.17 6.179,-2.845c-1.55,-1.676 -3.739,-2.754 -6.179,-2.846c1.659,-1.793 2.447,-4.101 2.356,-6.382c-2.281,-0.09 -4.59,0.697 -6.382,2.356c-0.092,-2.439 -1.169,-4.627 -2.844,-6.178c-1.677,1.551 -2.754,3.739 -2.846,6.178c-1.793,-1.659 -4.101,-2.446 -6.382,-2.356l0,0Z" style="fill:#fff;fill-rule:nonzero;stroke-width:0.24px;stroke:#583119;"/><path d="M34.4,16.944c-0.057,1.469 0.448,2.956 1.516,4.108c-1.569,0.061 -2.979,0.753 -3.976,1.832c0.997,1.08 2.407,1.772 3.976,1.832c-1.068,1.153 -1.573,2.64 -1.516,4.109c1.47,0.055 2.956,-0.45 4.109,-1.517c0.058,1.57 0.752,2.978 1.832,3.977c1.077,-0.999 1.77,-2.407 1.832,-3.977c1.15,1.067 2.639,1.572 4.106,1.517c0.057,-1.469 -0.448,-2.956 -1.516,-4.109c1.57,-0.06 2.979,-0.752 3.977,-1.832c-0.998,-1.079 -2.407,-1.772 -3.977,-1.832c1.068,-1.153 1.573,-2.639 1.516,-4.108c-1.467,-0.057 -2.956,0.45 -4.106,1.517c-0.062,-1.57 -0.755,-2.978 -1.832,-3.976c-1.08,0.998 -1.774,2.406 -1.832,3.976c-1.153,-1.067 -2.639,-1.574 -4.109,-1.517Z" style="fill:#fff;fill-rule:nonzero;stroke-width:0.24px;stroke:#583119;"/><path d="M37.12,21.351c0.049,0.579 0.119,0.939 -0.104,1.465c-0.303,0.72 -0.213,0.684 0.302,1.281c0.317,0.367 0.17,1.071 0.464,1.365c0.269,0.268 0.931,0.088 1.248,0.361c0.509,0.441 0.598,0.74 1.219,0.478c0.591,-0.248 0.841,-0.245 1.488,-0.191c0.577,0.049 0.535,-0.574 0.882,-0.947c0.372,-0.345 0.995,-0.305 0.946,-0.882c-0.055,-0.647 -0.057,-0.897 0.192,-1.487c0.26,-0.622 -0.037,-0.71 -0.478,-1.22c-0.273,-0.316 -0.093,-0.979 -0.361,-1.247c-0.295,-0.294 -0.999,-0.148 -1.367,-0.464c-0.597,-0.516 -0.558,-0.604 -1.28,-0.301c-0.526,0.221 -0.885,0.151 -1.464,0.102c-0.367,-0.03 -0.499,0.692 -0.726,0.961c-0.269,0.229 -0.991,0.359 -0.961,0.726" style="fill:#fff;fill-rule:nonzero;"/><path d="M37.12,21.351c0.049,0.579 0.119,0.939 -0.104,1.465c-0.303,0.72 -0.213,0.684 0.302,1.281c0.317,0.367 0.17,1.071 0.464,1.365c0.269,0.268 0.931,0.088 1.248,0.361c0.509,0.441 0.598,0.74 1.219,0.478c0.591,-0.248 0.841,-0.245 1.488,-0.191c0.577,0.049 0.535,-0.574 0.882,-0.947c0.372,-0.345 0.995,-0.305 0.946,-0.882c-0.055,-0.647 -0.057,-0.897 0.192,-1.487c0.26,-0.622 -0.037,-0.71 -0.478,-1.22c-0.273,-0.316 -0.093,-0.979 -0.361,-1.247c-0.295,-0.294 -0.999,-0.148 -1.367,-0.464c-0.597,-0.516 -0.558,-0.604 -1.28,-0.301c-0.526,0.221 -0.885,0.151 -1.464,0.102c-0.367,-0.03 -0.499,0.692 -0.726,0.961c-0.269,0.229 -0.991,0.359 -0.961,0.726Z" style="fill:none;stroke-width:0.24px;stroke:#583119;"/></g></svg>