<?xml version="1.0" standalone="no"?><!DOCTYPE svg PUBLIC "-//W3C//DTD SVG 1.1//EN" "http://www.w3.org/Graphics/SVG/1.1/DTD/svg11.dtd"><svg width="100%" height="100%" viewBox="0 0 58 58" version="1.1" xmlns="http://www.w3.org/2000/svg" xmlns:xlink="http://www.w3.org/1999/xlink" xml:space="preserve" style="fill-rule:evenodd;clip-rule:evenodd;"><g><g><rect x="0.433" y="0.431" width="56.518" height="56.518" style="fill:#fff;fill-rule:nonzero;"/><rect x="0.483" y="0.483" width="56.418" height="56.418" style="fill:none;stroke-width:0.23px;stroke:#583119;"/><path d="M33.055,56.9c0,-3.219 0.63,-6.342 1.873,-9.281c1.201,-2.839 2.92,-5.389 5.111,-7.58c2.19,-2.19 4.741,-3.909 7.58,-5.11c2.937,-1.243 6.06,-1.873 9.282,-1.873l0,-1.987c-14.268,0 -25.832,11.565 -25.832,25.831l1.986,0Z" style="fill:#fff;fill-rule:nonzero;stroke-width:0.23px;stroke:#583119;"/><path d="M43.459,56.9c0,-3.59 1.399,-6.964 3.936,-9.503c2.54,-2.54 5.916,-3.937 9.506,-3.937l0,-1.981c-8.519,0 -15.423,6.904 -15.423,15.421l1.981,0Z" style="fill:#fff;fill-rule:nonzero;stroke-width:0.23px;stroke:#583119;"/><path d="M51.734,56.9c0,-2.848 2.318,-5.164 5.166,-5.164l0,-1.967c-3.939,0 -7.132,3.193 -7.132,7.131l1.966,0Z" style="fill:#fff;fill-rule:nonzero;stroke-width:0.23px;stroke:#583119;"/><path d="M24.326,56.9c0,-3.219 -0.63,-6.342 -1.871,-9.281c-1.203,-2.839 -2.921,-5.389 -5.113,-7.58c-2.19,-2.19 -4.741,-3.909 -7.58,-5.11c-2.937,-1.243 -6.06,-1.873 -9.279,-1.873l0,-1.987c14.265,0 25.829,11.565 25.829,25.831l-1.986,0Z" style="fill:#fff;fill-rule:nonzero;stroke-width:0.23px;stroke:#583119;"/><path d="M13.921,56.9c0,-3.59 -1.397,-6.964 -3.935,-9.503c-2.539,-2.54 -5.913,-3.937 -9.503,-3.937l0,-1.981c8.515,0 15.421,6.904 15.421,15.421l-1.983,0Z" style="fill:#fff;fill-rule:nonzero;stroke-width:0.23px;stroke:#583119;"/><path d="M5.647,56.9c0,-2.848 -2.318,-5.164 -5.165,-5.164l0,-1.967c3.938,0 7.131,3.193 7.131,7.131l-1.966,0Z" style="fill:#fff;fill-rule:nonzero;stroke-width:0.23px;stroke:#583119;"/><path d="M33.055,0.482c0,3.219 0.63,6.342 1.873,9.281c1.201,2.839 2.92,5.389 5.111,7.58c2.19,2.191 4.741,3.91 7.58,5.11c2.937,1.243 6.06,1.874 9.282,1.874l0,1.986c-14.268,0 -25.832,-11.565 -25.832,-25.831l1.986,0Z" style="fill:#fff;fill-rule:nonzero;stroke-width:0.23px;stroke:#583119;"/><path d="M43.459,0.482c0,3.59 1.399,6.965 3.936,9.503c2.54,2.54 5.916,3.937 9.506,3.937l0,1.982c-8.519,0 -15.423,-6.905 -15.423,-15.422l1.981,0Z" style="fill:#fff;fill-rule:nonzero;stroke-width:0.23px;stroke:#583119;"/><path d="M51.734,0.482c0,2.848 2.318,5.165 5.166,5.165l0,1.967c-3.939,0 -7.132,-3.194 -7.132,-7.132l1.966,0Z" style="fill:#fff;fill-rule:nonzero;stroke-width:0.23px;stroke:#583119;"/><path d="M24.326,0.482c0,3.219 -0.63,6.342 -1.871,9.281c-1.203,2.839 -2.921,5.389 -5.113,7.58c-2.19,2.191 -4.741,3.91 -7.58,5.11c-2.937,1.243 -6.06,1.874 -9.279,1.874l0,1.986c14.265,0 25.829,-11.565 25.829,-25.831l-1.986,0Z" style="fill:#fff;fill-rule:nonzero;stroke-width:0.23px;stroke:#583119;"/><path d="M13.921,0.482c0,3.59 -1.397,6.965 -3.935,9.503c-2.539,2.54 -5.913,3.937 -9.503,3.937l0,1.982c8.515,0 15.421,-6.905 15.421,-15.422l-1.983,0Z" style="fill:#fff;fill-rule:nonzero;stroke-width:0.23px;stroke:#583119;"/><path d="M5.647,0.482c0,2.848 -2.318,5.165 -5.165,5.165l0,1.967c3.938,0 7.131,-3.194 7.131,-7.132l-1.966,0Z" style="fill:#fff;fill-rule:nonzero;stroke-width:0.23px;stroke:#583119;"/><path d="M9.03,26.276l0.044,3.386l6.153,-1.774l-6.197,-1.612Z" style="fill:#fff;fill-rule:nonzero;stroke-width:0.23px;stroke:#583119;"/><path d="M3.066,9.889l-0.045,-3.275l1.658,1.616l-1.613,1.659Z" style="fill:#fff;fill-rule:nonzero;stroke-width:0.23px;stroke:#583119;"/><path d="M20.479,2.893l-1.792,4.342c-0.952,-0.848 -2.038,-1.547 -3.222,-2.058l5.014,-2.284Z" style="fill:#fff;fill-rule:nonzero;stroke-width:0.23px;stroke:#583119;"/><path d="M15.44,15.035l-1.375,3.322l-3.048,-5.891c1.728,0.395 3.258,1.308 4.423,2.569Z" style="fill:#fff;fill-rule:nonzero;stroke-width:0.23px;stroke:#583119;"/><path d="M8.636,4.24l0.002,0l0.051,3.887l-3.824,0.05l3.771,-3.937Z" style="fill:#fff;fill-rule:nonzero;stroke-width:0.23px;stroke:#583119;"/><path d="M3.095,10.012c0,0 1.871,1.297 5.538,2.07l-3.877,-3.782l-1.661,1.712Z" style="fill:#fff;fill-rule:nonzero;stroke-width:0.23px;stroke:#583119;"/><path d="M17.342,10.687l1.369,-3.283c1.269,1.133 2.296,2.528 2.993,4.108l-4.362,-0.82l0,-0.005Z" style="fill:#fff;fill-rule:nonzero;stroke-width:0.23px;stroke:#583119;"/><path d="M15.45,14.959c-1.179,-1.255 -2.727,-2.161 -4.477,-2.556l6.226,-1.597l-1.749,4.153Z" style="fill:#fff;fill-rule:nonzero;stroke-width:0.23px;stroke:#583119;"/><path d="M17.231,10.661l-0.007,0.004c-1.854,-1.594 -4.288,-2.546 -6.945,-2.51l0.062,-0.002l-1.582,0.021l6.493,-2.91l1.979,5.397Z" style="fill:#fff;fill-rule:nonzero;stroke-width:0.23px;stroke:#583119;"/><path d="M20.843,18.54c0.052,4.012 -2.147,7.524 -5.411,9.296l-0.381,-0.101c1.789,-1.654 2.896,-4.047 2.863,-6.695c-0.015,-1.175 -0.256,-2.295 -0.676,-3.314l0.093,-6.881l-0.006,0.003l0,-0.005c2.123,1.872 3.476,4.619 3.518,7.697" style="fill:#fff;fill-rule:nonzero;"/><path d="M20.843,18.54c0.052,4.012 -2.147,7.524 -5.411,9.296l-0.381,-0.101c1.789,-1.654 2.896,-4.047 2.863,-6.695c-0.015,-1.175 -0.256,-2.295 -0.676,-3.314l0.093,-6.881l-0.006,0.003l0,-0.005c2.123,1.872 3.476,4.619 3.518,7.697Z" style="fill:none;stroke-width:0.23px;stroke:#583119;"/><path d="M10.871,12.342c-0.651,-0.154 -1.331,-0.23 -2.031,-0.221l-0.051,-3.894l0.001,0l2.081,4.115Z" style="fill:#fff;fill-rule:nonzero;stroke-width:0.23px;stroke:#583119;"/><path d="M3.046,6.491c0,0 1.838,-1.343 5.482,-2.212l-3.773,3.879l-1.709,-1.667Z" style="fill:#fff;fill-rule:nonzero;stroke-width:0.23px;stroke:#583119;"/><path d="M8.742,12.116l-0.05,-3.888l-3.825,0.05l3.875,3.838Z" style="fill:#fff;fill-rule:nonzero;stroke-width:0.23px;stroke:#583119;"/><path d="M22.773,16.417c0.069,5.098 -2.968,9.512 -7.341,11.426l-0.036,-0.009c3.301,-1.776 5.525,-5.294 5.474,-9.314c-0.041,-3.05 -1.378,-5.771 -3.479,-7.644l4.362,0.778c0.636,1.457 0.996,3.069 1.02,4.763" style="fill:#fff;fill-rule:nonzero;"/><path d="M22.773,16.417c0.069,5.098 -2.968,9.512 -7.341,11.426l-0.036,-0.009c3.301,-1.776 5.525,-5.294 5.474,-9.314c-0.041,-3.05 -1.378,-5.771 -3.479,-7.644l4.362,0.778c0.636,1.457 0.996,3.069 1.02,4.763Z" style="fill:none;stroke-width:0.23px;stroke:#583119;"/><path d="M18.643,7.301l-1.361,3.283l-1.925,-5.331l0.045,-0.022c1.192,0.514 2.285,1.216 3.241,2.07Z" style="fill:#fff;fill-rule:nonzero;stroke-width:0.23px;stroke:#583119;"/><path d="M17.24,10.841l-0.09,6.786c-0.384,-0.954 -0.929,-1.823 -1.596,-2.571l1.681,-4.211l0.005,-0.004Z" style="fill:#fff;fill-rule:nonzero;stroke-width:0.23px;stroke:#583119;"/><path d="M15.229,5.222l-6.439,2.905l-0.003,0l-0.051,-3.887l1.57,-0.023c1.739,-0.023 3.399,0.318 4.903,0.953l0.02,0.052Z" style="fill:#fff;fill-rule:nonzero;stroke-width:0.23px;stroke:#583119;"/><path d="M10.333,8.207c2.642,-0.034 5.059,0.914 6.903,2.505l0,0.005l-6.265,1.617l-2.148,-4.108l1.572,-0.02l-0.062,0.001Z" style="fill:#fff;fill-rule:nonzero;stroke-width:0.23px;stroke:#583119;"/><path d="M20.158,42.909l-2.509,4.441l-0.837,-3.007c0.929,-0.497 2.041,-0.996 3.346,-1.434Z" style="fill:#fff;fill-rule:nonzero;stroke-width:0.23px;stroke:#583119;"/><path d="M18.462,50.588l-0.841,-3.045l-3.022,0.848l3.863,2.197Z" style="fill:#fff;fill-rule:nonzero;stroke-width:0.23px;stroke:#583119;"/><path d="M22.278,50.064l2.549,-4.531l-7.066,1.972l4.517,2.559Z" style="fill:#fff;fill-rule:nonzero;stroke-width:0.23px;stroke:#583119;"/><path d="M28.616,47.593l-3.606,-2.038l0.936,3.362c0.93,-0.388 1.826,-0.843 2.67,-1.324Z" style="fill:#fff;fill-rule:nonzero;stroke-width:0.23px;stroke:#583119;"/><path d="M35.322,42.526l-10.288,2.845l2.078,-3.657c4.409,-0.106 8.21,0.812 8.21,0.812Z" style="fill:#fff;fill-rule:nonzero;stroke-width:0.23px;stroke:#583119;"/><path d="M21.661,42.445c0.736,-0.204 1.491,-0.357 2.251,-0.47l0.936,3.373l-4.458,-2.513c0.406,-0.137 0.828,-0.267 1.271,-0.39Z" style="fill:#fff;fill-rule:nonzero;stroke-width:0.23px;stroke:#583119;"/><path d="M12.77,47.334c0,0 1.168,-1.442 3.854,-2.883l-2.165,3.839l-1.689,-0.956Z" style="fill:#fff;fill-rule:nonzero;stroke-width:0.23px;stroke:#583119;"/><path d="M22.157,50.088l-4.444,-2.504l0.839,3.001c1.051,-0.053 2.258,-0.199 3.605,-0.497Z" style="fill:#fff;fill-rule:nonzero;stroke-width:0.23px;stroke:#583119;"/><path d="M35.352,42.605l-10.291,2.855l3.68,2.076c3.834,-2.184 6.611,-4.931 6.611,-4.931Z" style="fill:#fff;fill-rule:nonzero;stroke-width:0.23px;stroke:#583119;"/><path d="M23.684,49.72c0.736,-0.205 1.461,-0.463 2.169,-0.759l-0.94,-3.379l-2.517,4.459c0.417,-0.091 0.846,-0.197 1.288,-0.321Z" style="fill:#fff;fill-rule:nonzero;stroke-width:0.23px;stroke:#583119;"/><path d="M13.543,50.115c0,0 1.743,0.63 4.792,0.474l-3.839,-2.161l-0.953,1.687Z" style="fill:#fff;fill-rule:nonzero;stroke-width:0.23px;stroke:#583119;"/><path d="M16.737,44.374l0.835,3.054l-3,0.849l2.165,-3.903Z" style="fill:#fff;fill-rule:nonzero;stroke-width:0.23px;stroke:#583119;"/><path d="M20.286,42.87l4.514,2.557l-7.064,1.973l2.55,-4.53Z" style="fill:#fff;fill-rule:nonzero;stroke-width:0.23px;stroke:#583119;"/><path d="M26.982,41.715l-2.037,3.606l-0.931,-3.362c0.994,-0.147 1.997,-0.219 2.968,-0.244Z" style="fill:#fff;fill-rule:nonzero;stroke-width:0.23px;stroke:#583119;"/><path d="M12.775,47.457l0.711,2.551l0.918,-1.63l-1.629,-0.921Z" style="fill:#fff;fill-rule:nonzero;stroke-width:0.23px;stroke:#583119;"/><path d="M40.228,39.767l0.739,2.658l-5.256,0.029l4.517,-2.687Z" style="fill:#fff;fill-rule:nonzero;stroke-width:0.23px;stroke:#583119;"/><path d="M22.431,50.115c-0.015,0.029 -0.033,0.057 -0.047,0.084l4.512,2.52l-1.031,-3.667c-0.717,0.296 -1.451,0.554 -2.196,0.759c-0.424,0.116 -0.836,0.218 -1.238,0.304" style="fill:#fff;fill-rule:nonzero;"/><path d="M22.431,50.115c-0.015,0.029 -0.033,0.057 -0.047,0.084l4.512,2.52l-1.031,-3.667c-0.717,0.296 -1.451,0.554 -2.196,0.759c-0.424,0.116 -0.836,0.218 -1.238,0.304Z" style="fill:none;stroke-width:0.23px;stroke:#583119;"/><path d="M20.401,42.741c-0.029,-0.015 -0.054,-0.029 -0.085,-0.046l2.54,-4.481l1.029,3.685c-0.765,0.113 -1.526,0.268 -2.268,0.472c-0.423,0.117 -0.826,0.24 -1.216,0.37" style="fill:#fff;fill-rule:nonzero;"/><path d="M20.401,42.741c-0.029,-0.015 -0.054,-0.029 -0.085,-0.046l2.54,-4.481l1.029,3.685c-0.765,0.113 -1.526,0.268 -2.268,0.472c-0.423,0.117 -0.826,0.24 -1.216,0.37Z" style="fill:none;stroke-width:0.23px;stroke:#583119;"/><path d="M29.74,13.295c-0.084,2.149 0.656,4.323 2.218,6.012c-2.298,0.087 -4.358,1.102 -5.819,2.681c1.459,1.578 3.521,2.592 5.819,2.68c-1.562,1.688 -2.302,3.862 -2.218,6.012c2.149,0.083 4.323,-0.657 6.012,-2.221c0.087,2.299 1.101,4.361 2.681,5.821c1.578,-1.46 2.592,-3.522 2.679,-5.821c1.688,1.564 3.863,2.304 6.011,2.221c0.086,-2.15 -0.656,-4.324 -2.219,-6.012c2.299,-0.088 4.361,-1.102 5.821,-2.68c-1.46,-1.579 -3.522,-2.594 -5.821,-2.681c1.563,-1.689 2.305,-3.863 2.219,-6.012c-2.148,-0.084 -4.323,0.657 -6.011,2.22c-0.087,-2.298 -1.101,-4.359 -2.679,-5.82c-1.58,1.461 -2.594,3.522 -2.681,5.82c-1.689,-1.563 -3.863,-2.304 -6.012,-2.22Z" style="fill:#fff;fill-rule:nonzero;stroke-width:0.23px;stroke:#583119;"/><path d="M32.837,16.392c-0.054,1.383 0.422,2.784 1.428,3.869c-1.478,0.058 -2.806,0.71 -3.746,1.726c0.94,1.017 2.268,1.669 3.746,1.726c-1.006,1.086 -1.482,2.486 -1.428,3.87c1.384,0.052 2.784,-0.424 3.87,-1.429c0.055,1.479 0.709,2.805 1.726,3.746c1.014,-0.941 1.667,-2.267 1.726,-3.746c1.083,1.005 2.485,1.481 3.867,1.429c0.054,-1.384 -0.422,-2.784 -1.428,-3.87c1.479,-0.057 2.806,-0.709 3.746,-1.726c-0.94,-1.016 -2.267,-1.669 -3.746,-1.726c1.006,-1.086 1.482,-2.486 1.428,-3.869c-1.382,-0.054 -2.784,0.424 -3.867,1.429c-0.059,-1.479 -0.712,-2.806 -1.726,-3.746c-1.017,0.94 -1.671,2.267 -1.726,3.746c-1.086,-1.005 -2.486,-1.483 -3.87,-1.429Z" style="fill:#fff;fill-rule:nonzero;stroke-width:0.23px;stroke:#583119;"/><path d="M35.399,20.543c0.046,0.545 0.112,0.884 -0.098,1.38c-0.286,0.678 -0.201,0.644 0.284,1.207c0.299,0.345 0.16,1.008 0.437,1.285c0.254,0.253 0.877,0.083 1.176,0.34c0.479,0.416 0.563,0.697 1.148,0.451c0.557,-0.234 0.792,-0.231 1.402,-0.18c0.543,0.046 0.504,-0.541 0.831,-0.892c0.35,-0.325 0.937,-0.288 0.891,-0.831c-0.052,-0.61 -0.054,-0.845 0.181,-1.401c0.245,-0.586 -0.035,-0.669 -0.451,-1.149c-0.257,-0.298 -0.087,-0.922 -0.34,-1.175c-0.278,-0.277 -0.941,-0.139 -1.287,-0.437c-0.563,-0.486 -0.526,-0.569 -1.206,-0.283c-0.496,0.208 -0.834,0.142 -1.379,0.096c-0.346,-0.028 -0.47,0.652 -0.684,0.905c-0.253,0.216 -0.933,0.338 -0.905,0.684" style="fill:#fff;fill-rule:nonzero;"/><path d="M35.399,20.543c0.046,0.545 0.112,0.884 -0.098,1.38c-0.286,0.678 -0.201,0.644 0.284,1.207c0.299,0.345 0.16,1.008 0.437,1.285c0.254,0.253 0.877,0.083 1.176,0.34c0.479,0.416 0.563,0.697 1.148,0.451c0.557,-0.234 0.792,-0.231 1.402,-0.18c0.543,0.046 0.504,-0.541 0.831,-0.892c0.35,-0.325 0.937,-0.288 0.891,-0.831c-0.052,-0.61 -0.054,-0.845 0.181,-1.401c0.245,-0.586 -0.035,-0.669 -0.451,-1.149c-0.257,-0.298 -0.087,-0.922 -0.34,-1.175c-0.278,-0.277 -0.941,-0.139 -1.287,-0.437c-0.563,-0.486 -0.526,-0.569 -1.206,-0.283c-0.496,0.208 -0.834,0.142 -1.379,0.096c-0.346,-0.028 -0.47,0.652 -0.684,0.905c-0.253,0.216 -0.933,0.338 -0.905,0.684Z" style="fill:none;stroke-width:0.23px;stroke:#583119;"/></g></g></svg>