<?xml version="1.0" standalone="no"?><!DOCTYPE svg PUBLIC "-//W3C//DTD SVG 1.1//EN" "http://www.w3.org/Graphics/SVG/1.1/DTD/svg11.dtd"><svg width="100%" height="100%" viewBox="0 0 58 58" version="1.1" xmlns="http://www.w3.org/2000/svg" xmlns:xlink="http://www.w3.org/1999/xlink" xml:space="preserve" style="fill-rule:evenodd;clip-rule:evenodd;"><g><clipPath id="_clip1"><rect x="0" y="0" width="57.384" height="57.383"/></clipPath><g clip-path="url(#_clip1)"><g><rect x="0.432" y="0.258" width="56.52" height="56.52" style="fill:#fff;fill-rule:nonzero;"/><rect x="0.482" y="0.483" width="56.419" height="56.418" style="fill:none;stroke-width:0.23px;stroke:#583119;"/><path d="M33.056,56.901c0,-3.22 0.631,-6.343 1.874,-9.281c1.2,-2.839 2.92,-5.389 5.11,-7.58c2.191,-2.19 4.741,-3.91 7.58,-5.111c2.939,-1.243 6.062,-1.873 9.281,-1.873l0,-1.986c-14.266,0 -25.831,11.565 -25.831,25.831l1.986,0Z" style="fill:#fff;fill-rule:nonzero;stroke-width:0.23px;stroke:#583119;"/><path d="M43.461,56.901c0,-3.59 1.398,-6.965 3.936,-9.504c2.539,-2.539 5.915,-3.936 9.504,-3.936l0,-1.981c-8.516,0 -15.422,6.904 -15.422,15.421l1.982,0Z" style="fill:#fff;fill-rule:nonzero;stroke-width:0.23px;stroke:#583119;"/><path d="M51.737,56.901c0,-2.848 2.316,-5.164 5.164,-5.164l0,-1.967c-3.938,0 -7.13,3.193 -7.13,7.131l1.966,0Z" style="fill:#fff;fill-rule:nonzero;stroke-width:0.23px;stroke:#583119;"/><path d="M24.327,56.901c0,-3.22 -0.63,-6.343 -1.873,-9.281c-1.201,-2.839 -2.92,-5.389 -5.111,-7.58c-2.19,-2.19 -4.74,-3.91 -7.581,-5.111c-2.937,-1.243 -6.06,-1.873 -9.279,-1.873l0,-1.986c14.265,0 25.831,11.565 25.831,25.831l-1.987,0Z" style="fill:#fff;fill-rule:nonzero;stroke-width:0.23px;stroke:#583119;"/><path d="M13.923,56.901c0,-3.59 -1.398,-6.965 -3.937,-9.504c-2.538,-2.539 -5.914,-3.936 -9.503,-3.936l0,-1.981c8.516,0 15.421,6.904 15.421,15.421l-1.981,0Z" style="fill:#fff;fill-rule:nonzero;stroke-width:0.23px;stroke:#583119;"/><path d="M5.647,56.901c0,-2.848 -2.316,-5.164 -5.164,-5.164l0,-1.967c3.938,0 7.13,3.193 7.13,7.131l-1.966,0Z" style="fill:#fff;fill-rule:nonzero;stroke-width:0.23px;stroke:#583119;"/><path d="M33.056,0.482c0,3.221 0.631,6.343 1.874,9.281c1.2,2.839 2.92,5.389 5.11,7.58c2.191,2.191 4.741,3.91 7.58,5.112c2.939,1.243 6.062,1.872 9.281,1.872l0,1.986c-14.266,0 -25.831,-11.565 -25.831,-25.831l1.986,0Z" style="fill:#fff;fill-rule:nonzero;stroke-width:0.23px;stroke:#583119;"/><path d="M43.461,0.482c0,3.59 1.398,6.965 3.936,9.505c2.539,2.538 5.915,3.935 9.504,3.935l0,1.982c-8.516,0 -15.422,-6.905 -15.422,-15.422l1.982,0Z" style="fill:#fff;fill-rule:nonzero;stroke-width:0.23px;stroke:#583119;"/><path d="M51.737,0.482c0,2.848 2.316,5.165 5.164,5.165l0,1.967c-3.938,0 -7.13,-3.194 -7.13,-7.132l1.966,0Z" style="fill:#fff;fill-rule:nonzero;stroke-width:0.23px;stroke:#583119;"/><path d="M0.482,24.327l0,1.987c3.913,0 7.608,-0.895 10.931,-2.453c0.808,5.303 5.347,9.38 10.877,9.38c6.1,0 11.044,-4.945 11.044,-11.044c0,-5.545 -4.099,-10.093 -9.426,-10.881c1.528,-3.299 2.405,-6.96 2.405,-10.833l-1.986,0c0,3.219 -0.631,6.341 -1.872,9.281c-0.21,0.493 -0.455,0.966 -0.695,1.442c-5.686,0.274 -10.218,4.819 -10.466,10.512c-0.503,0.257 -1.007,0.515 -1.531,0.736c-2.938,1.243 -6.06,1.873 -9.281,1.873M20.563,13.313c-0.924,1.444 -1.989,2.8 -3.22,4.03c-1.206,1.206 -2.53,2.254 -3.942,3.167c0.688,-3.629 3.539,-6.495 7.162,-7.197M22.29,17.407c2.64,0 4.789,2.149 4.789,4.79c0,2.641 -2.149,4.788 -4.789,4.788c-2.641,0 -4.789,-2.147 -4.789,-4.788c0,-2.641 2.148,-4.79 4.789,-4.79M13.301,22.889c0.804,-0.461 1.559,-0.994 2.306,-1.536c-0.035,0.279 -0.085,0.555 -0.085,0.844c0,3.738 3.031,6.768 6.768,6.768c3.738,0 6.769,-3.03 6.769,-6.768c0,-3.738 -3.031,-6.768 -6.769,-6.768c-0.297,0 -0.581,0.05 -0.869,0.087c0.539,-0.749 1.068,-1.506 1.527,-2.312c4.683,0.344 8.401,4.223 8.401,8.993c0,4.995 -4.064,9.059 -9.059,9.059c-4.758,0 -8.63,-3.699 -8.989,-8.367" style="fill:#fff;fill-rule:nonzero;"/><path d="M0.482,24.327l0,1.987c3.913,0 7.608,-0.895 10.931,-2.453c0.808,5.303 5.347,9.38 10.877,9.38c6.1,0 11.044,-4.945 11.044,-11.044c0,-5.545 -4.099,-10.093 -9.426,-10.881c1.528,-3.299 2.405,-6.96 2.405,-10.833l-1.986,0c0,3.219 -0.631,6.341 -1.872,9.281c-0.21,0.493 -0.455,0.966 -0.695,1.442c-5.686,0.274 -10.218,4.819 -10.466,10.512c-0.503,0.257 -1.007,0.515 -1.531,0.736c-2.938,1.243 -6.06,1.873 -9.281,1.873ZM20.563,13.313c-0.924,1.444 -1.989,2.8 -3.22,4.03c-1.206,1.206 -2.53,2.254 -3.942,3.167c0.688,-3.629 3.539,-6.495 7.162,-7.197ZM22.29,17.407c2.64,0 4.789,2.149 4.789,4.79c0,2.641 -2.149,4.788 -4.789,4.788c-2.641,0 -4.789,-2.147 -4.789,-4.788c0,-2.641 2.148,-4.79 4.789,-4.79ZM13.301,22.889c0.804,-0.461 1.559,-0.994 2.306,-1.536c-0.035,0.279 -0.085,0.555 -0.085,0.844c0,3.738 3.031,6.768 6.768,6.768c3.738,0 6.769,-3.03 6.769,-6.768c0,-3.738 -3.031,-6.768 -6.769,-6.768c-0.297,0 -0.581,0.05 -0.869,0.087c0.539,-0.749 1.068,-1.506 1.527,-2.312c4.683,0.344 8.401,4.223 8.401,8.993c0,4.995 -4.064,9.059 -9.059,9.059c-4.758,0 -8.63,-3.699 -8.989,-8.367Z" style="fill:none;stroke-width:0.23px;stroke:#583119;"/><path d="M13.923,0.482c0,3.59 -1.398,6.965 -3.937,9.505c-2.538,2.538 -5.914,3.935 -9.503,3.935l0,1.982c8.516,0 15.421,-6.905 15.421,-15.422l-1.981,0Z" style="fill:#fff;fill-rule:nonzero;stroke-width:0.23px;stroke:#583119;"/><path d="M5.647,0.482c0,2.848 -2.316,5.165 -5.164,5.165l0,1.967c3.938,0 7.13,-3.194 7.13,-7.132l-1.966,0Z" style="fill:#fff;fill-rule:nonzero;stroke-width:0.23px;stroke:#583119;"/></g></g></g></svg>