<?xml version="1.0" standalone="no"?><!DOCTYPE svg PUBLIC "-//W3C//DTD SVG 1.1//EN" "http://www.w3.org/Graphics/SVG/1.1/DTD/svg11.dtd"><svg width="100%" height="100%" viewBox="0 0 60 60" version="1.1" xmlns="http://www.w3.org/2000/svg" xmlns:xlink="http://www.w3.org/1999/xlink" xml:space="preserve" style="fill-rule:evenodd;clip-rule:evenodd;stroke-miterlimit:1.41421;"><g><rect x="0" y="0.001" width="60" height="59.868" style="fill:#fff;"/><rect x="0" y="0.001" width="59.946" height="59.999" style="fill:none;stroke-width:0.24px;stroke:#583119;"/><path d="M34.61,60c0,-3.424 0.671,-6.746 1.991,-9.87c1.275,-3.019 3.103,-5.731 5.43,-8.061c2.328,-2.329 5.037,-4.158 8.054,-5.436c3.122,-1.321 6.441,-1.991 9.861,-1.991l0,-2.113c-15.158,0 -27.446,12.3 -27.446,27.471l2.11,0Z" style="fill:#fff;fill-rule:nonzero;stroke-width:0.24px;stroke:#583119;"/><path d="M45.666,60c0,-3.818 1.485,-7.407 4.182,-10.107c2.697,-2.7 6.284,-4.186 10.098,-4.186l0,-2.107c-9.049,0 -16.386,7.342 -16.386,16.4l2.106,0Z" style="fill:#fff;fill-rule:nonzero;stroke-width:0.24px;stroke:#583119;"/><path d="M54.459,60c0,-3.029 2.461,-5.492 5.487,-5.492l0,-2.092c-4.184,0 -7.576,3.396 -7.576,7.584l2.089,0Z" style="fill:#fff;fill-rule:nonzero;stroke-width:0.24px;stroke:#583119;"/><path d="M25.336,60c0,-3.424 -0.67,-6.746 -1.991,-9.87c-1.276,-3.019 -3.102,-5.731 -5.43,-8.061c-2.327,-2.329 -5.036,-4.158 -8.055,-5.436c-3.12,-1.321 -6.439,-1.991 -9.859,-1.991l0,-2.113c15.157,0 27.446,12.3 27.446,27.471l-2.111,0l0,0Z" style="fill:#fff;fill-rule:nonzero;stroke-width:0.24px;stroke:#583119;"/><path d="M14.281,60c0,-3.818 -1.485,-7.407 -4.183,-10.107c-2.697,-2.7 -6.284,-4.186 -10.097,-4.186l0,-2.107c9.048,0 16.385,7.342 16.385,16.4l-2.105,0Z" style="fill:#fff;fill-rule:nonzero;stroke-width:0.24px;stroke:#583119;"/><path d="M5.488,60c0,-3.029 -2.461,-5.492 -5.487,-5.492l0,-2.092c4.184,0 7.576,3.396 7.576,7.584l-2.089,0Z" style="fill:#fff;fill-rule:nonzero;stroke-width:0.24px;stroke:#583119;"/><path d="M34.61,0c0,3.425 0.671,6.746 1.991,9.87c1.275,3.019 3.103,5.731 5.43,8.061c2.328,2.33 5.037,4.158 8.054,5.437c3.122,1.322 6.441,1.99 9.861,1.99l0,2.113c-15.158,0 -27.446,-12.3 -27.446,-27.471l2.11,0Z" style="fill:#fff;fill-rule:nonzero;stroke-width:0.24px;stroke:#583119;"/><path d="M45.666,0c0,3.818 1.485,7.407 4.182,10.108c2.697,2.699 6.284,4.185 10.098,4.185l0,2.108c-9.049,0 -16.386,-7.343 -16.386,-16.401l2.106,0Z" style="fill:#fff;fill-rule:nonzero;stroke-width:0.24px;stroke:#583119;"/><path d="M54.459,0c0,3.029 2.461,5.493 5.487,5.493l0,2.092c-4.184,0 -7.576,-3.397 -7.576,-7.585l2.089,0Z" style="fill:#fff;fill-rule:nonzero;stroke-width:0.24px;stroke:#583119;"/><path d="M0,25.358l0,2.114c4.158,0 8.084,-0.952 11.614,-2.609c0.859,5.639 5.682,9.975 11.557,9.975c6.482,0 11.735,-5.259 11.735,-11.745c0,-5.897 -4.356,-10.733 -10.016,-11.571c1.624,-3.509 2.556,-7.402 2.556,-11.521l-2.11,0c0,3.423 -0.671,6.744 -1.989,9.87c-0.224,0.524 -0.484,1.027 -0.739,1.534c-6.041,0.291 -10.857,5.125 -11.12,11.179c-0.535,0.273 -1.07,0.548 -1.627,0.783c-3.121,1.321 -6.439,1.991 -9.861,1.991M21.336,13.645c-0.981,1.536 -2.113,2.978 -3.421,4.286c-1.281,1.283 -2.688,2.397 -4.188,3.368c0.731,-3.859 3.76,-6.907 7.609,-7.654M23.171,17.999c2.805,0 5.089,2.286 5.089,5.094c0,2.809 -2.284,5.092 -5.089,5.092c-2.806,0 -5.088,-2.283 -5.088,-5.092c0,-2.808 2.282,-5.094 5.088,-5.094M13.62,23.829c0.855,-0.49 1.657,-1.057 2.45,-1.633c-0.037,0.296 -0.09,0.59 -0.09,0.897c0,3.976 3.221,7.198 7.191,7.198c3.972,0 7.192,-3.222 7.192,-7.198c0,-3.975 -3.22,-7.197 -7.192,-7.197c-0.315,0 -0.617,0.053 -0.923,0.092c0.573,-0.796 1.135,-1.601 1.622,-2.459c4.976,0.366 8.927,4.492 8.927,9.564c0,5.312 -4.319,9.634 -9.626,9.634c-5.055,0 -9.169,-3.934 -9.551,-8.898" style="fill:#fff;fill-rule:nonzero;"/><path d="M0,25.358l0,2.114c4.158,0 8.084,-0.952 11.614,-2.609c0.859,5.639 5.682,9.975 11.557,9.975c6.482,0 11.735,-5.259 11.735,-11.745c0,-5.897 -4.356,-10.733 -10.016,-11.571c1.624,-3.509 2.556,-7.402 2.556,-11.521l-2.11,0c0,3.423 -0.671,6.744 -1.989,9.87c-0.224,0.524 -0.484,1.027 -0.739,1.534c-6.041,0.291 -10.857,5.125 -11.12,11.179c-0.535,0.273 -1.07,0.548 -1.627,0.783c-3.121,1.321 -6.439,1.991 -9.861,1.991l0,0ZM21.336,13.645c-0.981,1.536 -2.113,2.978 -3.421,4.286c-1.281,1.283 -2.688,2.397 -4.188,3.368c0.731,-3.859 3.76,-6.907 7.609,-7.654l0,0ZM23.171,17.999c2.805,0 5.089,2.286 5.089,5.094c0,2.809 -2.284,5.092 -5.089,5.092c-2.806,0 -5.088,-2.283 -5.088,-5.092c0,-2.808 2.282,-5.094 5.088,-5.094ZM13.62,23.829c0.855,-0.49 1.657,-1.057 2.45,-1.633c-0.037,0.296 -0.09,0.59 -0.09,0.897c0,3.976 3.221,7.198 7.191,7.198c3.972,0 7.192,-3.222 7.192,-7.198c0,-3.975 -3.22,-7.197 -7.192,-7.197c-0.315,0 -0.617,0.053 -0.923,0.092c0.573,-0.796 1.135,-1.601 1.622,-2.459c4.976,0.366 8.927,4.492 8.927,9.564c0,5.312 -4.319,9.634 -9.626,9.634c-5.055,0 -9.169,-3.934 -9.551,-8.898l0,0Z" style="fill:none;stroke-width:0.24px;stroke:#583119;"/><path d="M14.281,0c0,3.818 -1.485,7.407 -4.183,10.108c-2.697,2.699 -6.284,4.185 -10.097,4.185l0,2.108c9.048,0 16.385,-7.343 16.385,-16.401l-2.105,0l0,0Z" style="fill:#fff;fill-rule:nonzero;stroke-width:0.24px;stroke:#583119;"/><path d="M5.488,0c0,3.029 -2.461,5.493 -5.487,5.493l0,2.092c4.184,0 7.576,-3.397 7.576,-7.585l-2.089,0l0,0Z" style="fill:#fff;fill-rule:nonzero;stroke-width:0.24px;stroke:#583119;"/></g></svg>