<?xml version="1.0" standalone="no"?><!DOCTYPE svg PUBLIC "-//W3C//DTD SVG 1.1//EN" "http://www.w3.org/Graphics/SVG/1.1/DTD/svg11.dtd"><svg width="100%" height="100%" viewBox="0 0 60 60" version="1.1" xmlns="http://www.w3.org/2000/svg" xmlns:xlink="http://www.w3.org/1999/xlink" xml:space="preserve" style="fill-rule:evenodd;clip-rule:evenodd;stroke-miterlimit:1.41421;"><g><rect x="0" y="0" width="60" height="60" style="fill:#fff;fill-rule:nonzero;"/><rect x="0.052" y="0.055" width="59.894" height="59.893" style="fill:none;stroke-width:0.24px;stroke:#583119;"/><path d="M0.053,34.634c3.419,0 6.735,0.667 9.853,1.988c3.013,1.275 5.721,3.1 8.046,5.426c2.326,2.326 4.151,5.033 5.427,8.046c1.32,3.12 1.987,6.436 1.987,9.853l2.109,0c0,-15.144 -12.278,-27.422 -27.422,-27.422l0,2.109Z" style="fill:#fff;fill-rule:nonzero;stroke-width:0.24px;stroke:#583119;"/><path d="M0.053,45.678c3.812,0 7.394,1.485 10.09,4.18c2.695,2.695 4.178,6.278 4.178,10.088l2.104,0c0,-9.042 -7.331,-16.371 -16.372,-16.371l0,2.103Z" style="fill:#fff;fill-rule:nonzero;stroke-width:0.24px;stroke:#583119;"/><path d="M0.053,54.464c3.023,0 5.483,2.459 5.483,5.482l2.088,0c0,-4.181 -3.389,-7.569 -7.571,-7.569l0,2.087Z" style="fill:#fff;fill-rule:nonzero;stroke-width:0.24px;stroke:#583119;"/><path d="M0.053,25.367c3.419,0 6.735,-0.67 9.853,-1.989c3.013,-1.274 5.721,-3.099 8.046,-5.425c2.326,-2.326 4.151,-5.033 5.427,-8.046c1.32,-3.12 1.987,-6.436 1.987,-9.853l2.109,0c0,15.145 -12.278,27.422 -27.422,27.422l0,-2.109l0,0Z" style="fill:#fff;fill-rule:nonzero;stroke-width:0.24px;stroke:#583119;"/><path d="M0.053,14.323c3.812,0 7.394,-1.485 10.09,-4.18c2.695,-2.695 4.178,-6.279 4.178,-10.088l2.104,0c0,9.042 -7.331,16.371 -16.372,16.371l0,-2.103l0,0Z" style="fill:#fff;fill-rule:nonzero;stroke-width:0.24px;stroke:#583119;"/><path d="M0.053,5.537c3.023,0 5.483,-2.461 5.483,-5.483l2.088,0c0,4.182 -3.389,7.57 -7.571,7.57l0,-2.087l0,0Z" style="fill:#fff;fill-rule:nonzero;stroke-width:0.24px;stroke:#583119;"/><path d="M59.946,34.634c-3.418,0 -6.734,0.667 -9.853,1.988c-3.013,1.275 -5.72,3.1 -8.045,5.426c-2.326,2.326 -4.151,5.033 -5.427,8.046c-1.32,3.12 -1.987,6.436 -1.987,9.853l-2.11,0c0,-15.144 12.279,-27.422 27.422,-27.422l0,2.109Z" style="fill:#fff;fill-rule:nonzero;stroke-width:0.24px;stroke:#583119;"/><path d="M59.946,45.678c-3.811,0 -7.393,1.485 -10.089,4.18c-2.696,2.695 -4.18,6.278 -4.18,10.088l-2.102,0c0,-9.042 7.329,-16.371 16.371,-16.371l0,2.103Z" style="fill:#fff;fill-rule:nonzero;stroke-width:0.24px;stroke:#583119;"/><path d="M59.946,54.464c-3.023,0 -5.482,2.459 -5.482,5.482l-2.088,0c0,-4.181 3.389,-7.569 7.57,-7.569l0,2.087Z" style="fill:#fff;fill-rule:nonzero;stroke-width:0.24px;stroke:#583119;"/><path d="M59.946,25.367c-3.418,0 -6.734,-0.67 -9.853,-1.989c-3.013,-1.274 -5.72,-3.099 -8.045,-5.425c-2.326,-2.326 -4.151,-5.033 -5.427,-8.046c-1.32,-3.12 -1.987,-6.436 -1.987,-9.853l-2.11,0c0,15.145 12.279,27.422 27.422,27.422l0,-2.109Z" style="fill:#fff;fill-rule:nonzero;stroke-width:0.24px;stroke:#583119;"/><path d="M59.946,14.323c-3.811,0 -7.393,-1.485 -10.089,-4.18c-2.696,-2.695 -4.18,-6.279 -4.18,-10.088l-2.102,0c0,9.042 7.329,16.371 16.371,16.371l0,-2.103l0,0Z" style="fill:#fff;fill-rule:nonzero;stroke-width:0.24px;stroke:#583119;"/><path d="M59.946,5.537c-3.023,0 -5.482,-2.461 -5.482,-5.483l-2.088,0c0,4.182 3.389,7.57 7.57,7.57l0,-2.087Z" style="fill:#fff;fill-rule:nonzero;stroke-width:0.24px;stroke:#583119;"/><path d="M40.54,15.501l2.332,-5.951l1.566,3.583c-1.064,0.78 -2.356,1.593 -3.898,2.368Z" style="fill:#fff;fill-rule:nonzero;stroke-width:0.24px;stroke:#583119;"/><path d="M41.289,5.728l1.576,3.61l3.603,-1.579l-5.179,-2.031Z" style="fill:#fff;fill-rule:nonzero;stroke-width:0.24px;stroke:#583119;"/><path d="M36.695,7.034l-2.361,6.05l8.398,-3.682l-6.037,-2.368Z" style="fill:#fff;fill-rule:nonzero;stroke-width:0.24px;stroke:#583119;"/><path d="M29.305,11.194l4.832,1.894l-1.754,-4.006c-1.084,0.645 -2.115,1.367 -3.078,2.112l0,0Z" style="fill:#fff;fill-rule:nonzero;stroke-width:0.24px;stroke:#583119;"/><path d="M21.916,18.616l12.225,-5.331l-1.923,4.902c-5.439,0.902 -10.302,0.429 -10.302,0.429Z" style="fill:#fff;fill-rule:nonzero;stroke-width:0.24px;stroke:#583119;"/><path d="M38.804,16.321c-0.877,0.382 -1.788,0.706 -2.71,0.978l-1.756,-4.018l5.972,2.333c-0.478,0.242 -0.98,0.476 -1.506,0.707" style="fill:#fff;fill-rule:nonzero;"/><path d="M38.804,16.321c-0.877,0.382 -1.788,0.706 -2.71,0.978l-1.756,-4.018l5.972,2.333c-0.478,0.242 -0.98,0.476 -1.506,0.707Z" style="fill:none;stroke-width:0.24px;stroke:#583119;"/><path d="M48.896,8.732c0,0 -1.195,1.996 -4.275,4.26l2.011,-5.148l2.264,0.888Z" style="fill:#fff;fill-rule:nonzero;stroke-width:0.24px;stroke:#583119;"/><path d="M36.814,6.987l5.955,2.325l-1.568,-3.576c-1.297,0.251 -2.769,0.645 -4.387,1.251l0,0Z" style="fill:#fff;fill-rule:nonzero;stroke-width:0.24px;stroke:#583119;"/><path d="M21.87,18.535l12.228,-5.341l-4.916,-1.924c-4.359,3.376 -7.312,7.265 -7.312,7.265l0,0Z" style="fill:#fff;fill-rule:nonzero;stroke-width:0.24px;stroke:#583119;"/><path d="M35.031,7.699c-0.875,0.383 -1.728,0.831 -2.554,1.321l1.76,4.025l2.334,-5.973c-0.5,0.187 -1.014,0.396 -1.54,0.627" style="fill:#fff;fill-rule:nonzero;"/><path d="M35.031,7.699c-0.875,0.383 -1.728,0.831 -2.554,1.321l1.76,4.025l2.334,-5.973c-0.5,0.187 -1.014,0.396 -1.54,0.627l0,0Z" style="fill:none;stroke-width:0.24px;stroke:#583119;"/><path d="M47.458,5.454c0,0 -2.273,-0.472 -6.028,0.254l5.141,1.998l0.887,-2.252l0,0Z" style="fill:#fff;fill-rule:nonzero;stroke-width:0.24px;stroke:#583119;"/><path d="M44.502,13.09l-1.564,-3.626l3.573,-1.585l-2.009,5.211Z" style="fill:#fff;fill-rule:nonzero;stroke-width:0.24px;stroke:#583119;"/><path d="M40.41,15.557l-6.033,-2.366l8.396,-3.681l-2.363,6.047l0,0Z" style="fill:#fff;fill-rule:nonzero;stroke-width:0.24px;stroke:#583119;"/><path d="M32.35,18.156l1.891,-4.832l1.748,4.007c-1.209,0.358 -2.438,0.624 -3.639,0.825Z" style="fill:#fff;fill-rule:nonzero;stroke-width:0.24px;stroke:#583119;"/><path d="M48.873,8.605l-1.339,-3.056l-0.859,2.196l2.198,0.86Z" style="fill:#fff;fill-rule:nonzero;stroke-width:0.24px;stroke:#583119;"/><path d="M16.39,22.877l-1.389,-3.167l6.517,-0.963l-5.128,4.13Z" style="fill:#fff;fill-rule:nonzero;stroke-width:0.24px;stroke:#583119;"/><path d="M36.516,7.015c0.015,-0.038 0.032,-0.077 0.043,-0.113l-6.029,-2.339l1.926,4.367c0.835,-0.492 1.698,-0.94 2.582,-1.323c0.504,-0.217 0.997,-0.415 1.478,-0.592Z" style="fill:#fff;fill-rule:nonzero;stroke-width:0.24px;stroke:#583119;"/><path d="M40.295,15.71c0.039,0.014 0.073,0.028 0.113,0.043l-2.352,6.008l-1.92,-4.394c0.926,-0.274 1.841,-0.601 2.722,-0.985c0.501,-0.22 0.979,-0.443 1.437,-0.672Z" style="fill:#fff;fill-rule:nonzero;stroke-width:0.24px;stroke:#583119;"/><path d="M41.293,42.539l-7.584,10.525l7.584,2.485l0,-13.01Z" style="fill:#fff;fill-rule:nonzero;stroke-width:0.24px;stroke:#583119;"/><path d="M28.939,46.574l4.686,6.449l7.582,-10.436l-12.268,3.987l0,0Z" style="fill:#fff;fill-rule:nonzero;stroke-width:0.24px;stroke:#583119;"/><path d="M41.293,42.486l-12.387,-3.987l0,7.974l12.387,-3.987Z" style="fill:#fff;fill-rule:nonzero;stroke-width:0.24px;stroke:#583119;"/><path d="M41.4,42.539l0,13.01l7.584,-2.485l-7.584,-10.525Z" style="fill:#fff;fill-rule:nonzero;stroke-width:0.24px;stroke:#583119;"/><path d="M41.4,42.539l7.635,10.485l4.719,-6.479l-12.354,-4.006Z" style="fill:#fff;fill-rule:nonzero;stroke-width:0.24px;stroke:#583119;"/><path d="M33.625,31.949l-4.687,6.45l12.268,3.985l-7.581,-10.435Z" style="fill:#fff;fill-rule:nonzero;stroke-width:0.24px;stroke:#583119;"/><path d="M41.293,29.424l-7.584,2.484l7.584,10.524l0,-13.008l0,0Z" style="fill:#fff;fill-rule:nonzero;stroke-width:0.24px;stroke:#583119;"/><path d="M41.519,42.486l12.269,3.987l0,-7.973l-12.269,3.986Z" style="fill:#fff;fill-rule:nonzero;stroke-width:0.24px;stroke:#583119;"/><path d="M41.4,29.424l0,13.008l7.584,-10.524l-7.584,-2.484Z" style="fill:#fff;fill-rule:nonzero;stroke-width:0.24px;stroke:#583119;"/></g></svg>