<?xml version="1.0" standalone="no"?><!DOCTYPE svg PUBLIC "-//W3C//DTD SVG 1.1//EN" "http://www.w3.org/Graphics/SVG/1.1/DTD/svg11.dtd"><svg width="100%" height="100%" viewBox="0 0 58 58" version="1.1" xmlns="http://www.w3.org/2000/svg" xmlns:xlink="http://www.w3.org/1999/xlink" xml:space="preserve" style="fill-rule:evenodd;clip-rule:evenodd;"><g><clipPath id="_clip1"><polygon points="0,57.384 0,0 57.385,0 57.385,57.384 0,57.384 "/></clipPath><g clip-path="url(#_clip1)"><g><path d="M56.953,0.431l0,56.52l-56.52,0l0,-56.52l56.52,0Z" style="fill:#fff;fill-rule:nonzero;"/><path d="M56.902,0.483l0,56.419l-56.42,0l0,-56.419l56.42,0Z" style="fill:none;stroke-width:0.23px;stroke:#583119;"/><path d="M0.483,33.056c3.221,0 6.344,0.629 9.281,1.873c2.839,1.201 5.39,2.92 7.58,5.111c2.191,2.191 3.91,4.741 5.112,7.58c1.243,2.939 1.872,6.062 1.872,9.281l1.986,0c0,-14.266 -11.565,-25.831 -25.831,-25.831l0,1.986Z" style="fill:#fff;fill-rule:nonzero;stroke-width:0.23px;stroke:#583119;"/><path d="M0.483,43.46c3.591,0 6.965,1.399 9.505,3.937c2.538,2.539 3.935,5.914 3.935,9.503l1.982,0c0,-8.517 -6.905,-15.421 -15.422,-15.421l0,1.981Z" style="fill:#fff;fill-rule:nonzero;stroke-width:0.23px;stroke:#583119;"/><path d="M0.483,51.736c2.848,0 5.165,2.316 5.165,5.164l1.967,0c0,-3.938 -3.193,-7.13 -7.132,-7.13l0,1.966Z" style="fill:#fff;fill-rule:nonzero;stroke-width:0.23px;stroke:#583119;"/><path d="M0.483,24.327c3.221,0 6.344,-0.631 9.281,-1.874c2.839,-1.2 5.39,-2.919 7.58,-5.11c2.191,-2.191 3.91,-4.741 5.112,-7.58c1.243,-2.939 1.872,-6.062 1.872,-9.281l1.986,0c0,14.266 -11.565,25.831 -25.831,25.831l0,-1.986Z" style="fill:#fff;fill-rule:nonzero;stroke-width:0.23px;stroke:#583119;"/><path d="M0.483,13.923c3.591,0 6.965,-1.399 9.505,-3.937c2.538,-2.539 3.935,-5.915 3.935,-9.503l1.982,0c0,8.517 -6.905,15.421 -15.422,15.421l0,-1.981Z" style="fill:#fff;fill-rule:nonzero;stroke-width:0.23px;stroke:#583119;"/><path d="M0.483,5.647c2.848,0 5.165,-2.318 5.165,-5.165l1.967,0c0,3.939 -3.193,7.131 -7.132,7.131l0,-1.966Z" style="fill:#fff;fill-rule:nonzero;stroke-width:0.23px;stroke:#583119;"/><path d="M56.902,33.056c-3.22,0 -6.343,0.629 -9.281,1.873c-2.839,1.201 -5.389,2.92 -7.579,5.111c-2.191,2.191 -3.91,4.741 -5.112,7.58c-1.243,2.939 -1.872,6.062 -1.872,9.281l-1.987,0c0,-14.266 11.566,-25.831 25.831,-25.831l0,1.986Z" style="fill:#fff;fill-rule:nonzero;stroke-width:0.23px;stroke:#583119;"/><path d="M56.902,43.46c-3.59,0 -6.964,1.399 -9.504,3.937c-2.539,2.539 -3.937,5.914 -3.937,9.503l-1.98,0c0,-8.517 6.904,-15.421 15.421,-15.421l0,1.981Z" style="fill:#fff;fill-rule:nonzero;stroke-width:0.23px;stroke:#583119;"/><path d="M56.902,51.736c-2.848,0 -5.164,2.316 -5.164,5.164l-1.967,0c0,-3.938 3.193,-7.13 7.131,-7.13l0,1.966Z" style="fill:#fff;fill-rule:nonzero;stroke-width:0.23px;stroke:#583119;"/><path d="M56.902,24.327c-3.22,0 -6.343,-0.631 -9.281,-1.874c-2.839,-1.2 -5.389,-2.919 -7.579,-5.11c-2.191,-2.191 -3.91,-4.741 -5.112,-7.58c-1.243,-2.939 -1.872,-6.062 -1.872,-9.281l-1.987,0c0,14.266 11.566,25.831 25.831,25.831l0,-1.986Z" style="fill:#fff;fill-rule:nonzero;stroke-width:0.23px;stroke:#583119;"/><path d="M56.902,13.923c-3.59,0 -6.964,-1.399 -9.504,-3.937c-2.539,-2.539 -3.937,-5.915 -3.937,-9.503l-1.98,0c0,8.517 6.904,15.421 15.421,15.421l0,-1.981Z" style="fill:#fff;fill-rule:nonzero;stroke-width:0.23px;stroke:#583119;"/><path d="M56.902,5.647c-2.848,0 -5.164,-2.318 -5.164,-5.165l-1.967,0c0,3.939 3.193,7.131 7.131,7.131l0,-1.966Z" style="fill:#fff;fill-rule:nonzero;stroke-width:0.23px;stroke:#583119;"/><path d="M38.622,15.033l2.196,-5.606l1.476,3.375c-1.003,0.735 -2.22,1.501 -3.672,2.231Z" style="fill:#fff;fill-rule:nonzero;stroke-width:0.23px;stroke:#583119;"/><path d="M39.327,5.827l1.485,3.4l3.394,-1.487l-4.879,-1.913Z" style="fill:#fff;fill-rule:nonzero;stroke-width:0.23px;stroke:#583119;"/><path d="M35,7.057l-2.224,5.699l7.911,-3.468l-5.687,-2.231Z" style="fill:#fff;fill-rule:nonzero;stroke-width:0.23px;stroke:#583119;"/><path d="M28.038,10.976l4.552,1.784l-1.652,-3.774c-1.021,0.608 -1.993,1.288 -2.9,1.99Z" style="fill:#fff;fill-rule:nonzero;stroke-width:0.23px;stroke:#583119;"/><path d="M21.078,17.967l11.516,-5.022l-1.812,4.618c-5.123,0.85 -9.704,0.404 -9.704,0.404Z" style="fill:#fff;fill-rule:nonzero;stroke-width:0.23px;stroke:#583119;"/><path d="M36.986,15.805c-0.826,0.36 -1.684,0.665 -2.552,0.922l-1.655,-3.785l5.626,2.197c-0.45,0.228 -0.923,0.449 -1.419,0.666" style="fill:#fff;fill-rule:nonzero;"/><path d="M36.986,15.805c-0.826,0.36 -1.684,0.665 -2.552,0.922l-1.655,-3.785l5.626,2.197c-0.45,0.228 -0.923,0.449 -1.419,0.666Z" style="fill:none;stroke-width:0.23px;stroke:#583119;"/><path d="M46.493,8.657c0,0 -1.126,1.88 -4.027,4.012l1.894,-4.849l2.133,0.837Z" style="fill:#fff;fill-rule:nonzero;stroke-width:0.23px;stroke:#583119;"/><path d="M35.112,7.013l5.609,2.19l-1.477,-3.369c-1.221,0.237 -2.608,0.608 -4.132,1.179Z" style="fill:#fff;fill-rule:nonzero;stroke-width:0.23px;stroke:#583119;"/><path d="M21.035,17.891l11.518,-5.031l-4.631,-1.813c-4.106,3.181 -6.887,6.844 -6.887,6.844Z" style="fill:#fff;fill-rule:nonzero;stroke-width:0.23px;stroke:#583119;"/><path d="M33.432,7.683c-0.824,0.361 -1.628,0.783 -2.406,1.245l1.658,3.791l2.199,-5.626c-0.471,0.176 -0.955,0.373 -1.451,0.59" style="fill:#fff;fill-rule:nonzero;"/><path d="M33.432,7.683c-0.824,0.361 -1.628,0.783 -2.406,1.245l1.658,3.791l2.199,-5.626c-0.471,0.176 -0.955,0.373 -1.451,0.59Z" style="fill:none;stroke-width:0.23px;stroke:#583119;"/><path d="M45.138,5.569c0,0 -2.141,-0.445 -5.678,0.239l4.843,1.882l0.835,-2.121Z" style="fill:#fff;fill-rule:nonzero;stroke-width:0.23px;stroke:#583119;"/><path d="M42.354,12.762l-1.473,-3.416l3.365,-1.493l-1.892,4.909Z" style="fill:#fff;fill-rule:nonzero;stroke-width:0.23px;stroke:#583119;"/><path d="M38.499,15.086l-5.683,-2.229l7.909,-3.468l-2.226,5.697Z" style="fill:#fff;fill-rule:nonzero;stroke-width:0.23px;stroke:#583119;"/><path d="M30.907,17.534l1.781,-4.552l1.647,3.775c-1.139,0.337 -2.297,0.588 -3.428,0.777Z" style="fill:#fff;fill-rule:nonzero;stroke-width:0.23px;stroke:#583119;"/><path d="M46.471,8.537l-1.261,-2.879l-0.809,2.069l2.07,0.81Z" style="fill:#fff;fill-rule:nonzero;stroke-width:0.23px;stroke:#583119;"/><path d="M15.872,21.981l-1.308,-2.983l6.139,-0.907l-4.831,3.89Z" style="fill:#fff;fill-rule:nonzero;stroke-width:0.23px;stroke:#583119;"/><path d="M34.831,7.039c0.014,-0.036 0.03,-0.072 0.041,-0.106l-5.68,-2.204l1.815,4.114c0.786,-0.463 1.599,-0.885 2.432,-1.246c0.475,-0.205 0.939,-0.391 1.392,-0.558Z" style="fill:#fff;fill-rule:nonzero;stroke-width:0.23px;stroke:#583119;"/><path d="M38.391,15.23c0.037,0.013 0.069,0.026 0.106,0.04l-2.215,5.66l-1.809,-4.139c0.872,-0.258 1.734,-0.566 2.564,-0.928c0.472,-0.207 0.922,-0.417 1.354,-0.633Z" style="fill:#fff;fill-rule:nonzero;stroke-width:0.23px;stroke:#583119;"/><path d="M39.331,40.503l-7.144,9.914l7.144,2.341l0,-12.255Z" style="fill:#fff;fill-rule:nonzero;stroke-width:0.23px;stroke:#583119;"/><path d="M27.694,44.304l4.414,6.075l7.142,-9.831l-11.556,3.756Z" style="fill:#fff;fill-rule:nonzero;stroke-width:0.23px;stroke:#583119;"/><path d="M39.331,40.453l-11.669,-3.756l0,7.512l11.669,-3.756Z" style="fill:#fff;fill-rule:nonzero;stroke-width:0.23px;stroke:#583119;"/><path d="M39.432,40.503l0,12.255l7.144,-2.341l-7.144,-9.914Z" style="fill:#fff;fill-rule:nonzero;stroke-width:0.23px;stroke:#583119;"/><path d="M39.432,40.503l7.192,9.877l4.445,-6.104l-11.637,-3.773Z" style="fill:#fff;fill-rule:nonzero;stroke-width:0.23px;stroke:#583119;"/><path d="M32.108,30.527l-4.415,6.076l11.556,3.754l-7.141,-9.83Z" style="fill:#fff;fill-rule:nonzero;stroke-width:0.23px;stroke:#583119;"/><path d="M39.331,28.148l-7.144,2.34l7.144,9.914l0,-12.254Z" style="fill:#fff;fill-rule:nonzero;stroke-width:0.23px;stroke:#583119;"/><path d="M39.544,40.453l11.557,3.756l0,-7.511l-11.557,3.755Z" style="fill:#fff;fill-rule:nonzero;stroke-width:0.23px;stroke:#583119;"/><path d="M39.432,28.148l0,12.254l7.144,-9.914l-7.144,-2.34Z" style="fill:#fff;fill-rule:nonzero;stroke-width:0.23px;stroke:#583119;"/></g></g></g></svg>